<?xml version="1.0" encoding="utf-8"?>
<!-- Generator: Adobe Illustrator 16.2.1, SVG Export Plug-In . SVG Version: 6.00 Build 0)  -->
<!DOCTYPE svg PUBLIC "-//W3C//DTD SVG 1.1//EN" "http://www.w3.org/Graphics/SVG/1.1/DTD/svg11.dtd">
<svg version="1.1" id="Ebene_1" xmlns="http://www.w3.org/2000/svg" xmlns:xlink="http://www.w3.org/1999/xlink" x="0px" y="0px"
	 width="100px" height="100px" viewBox="0 0 100 100" enable-background="new 0 0 100 100" xml:space="preserve">
<g>
	<path d="M40.53,45.93c-0.331,0-0.668-0.064-0.992-0.207c-1.265-0.548-1.845-2.018-1.294-3.281l9.554-20.705
		c0.395-0.912,1.293-1.501,2.288-1.501l0,0c0.995,0,1.895,0.589,2.289,1.501l9.552,20.705c0.55,1.264-0.032,2.733-1.294,3.281
		c-1.268,0.556-2.736-0.028-3.283-1.293l-7.264-15.432L42.82,44.43C42.414,45.369,41.495,45.93,40.53,45.93z"/>
	<path d="M62.121,79.9c-7.057,0-13.131-5.024-14.444-11.949l-1.058-4.594c-0.887-4.666-4.9-7.984-9.562-7.984
		c-5.354,0-9.71,4.356-9.71,9.71c0,5.353,4.357,9.71,9.71,9.71c1.406,0,2.761-0.293,4.03-0.873c1.258-0.576,2.733-0.02,3.307,1.236
		c0.57,1.255,0.017,2.733-1.235,3.307c-1.925,0.877-3.977,1.32-6.102,1.32c-8.107,0-14.7-6.594-14.7-14.7s6.593-14.701,14.7-14.701
		c7.057,0,13.132,5.026,14.444,11.952l1.058,4.594c0.887,4.663,4.9,7.982,9.562,7.982c5.354,0,9.71-4.355,9.71-9.709
		s-4.356-9.709-9.71-9.709c-1.406,0-2.761,0.292-4.03,0.872c-1.26,0.572-2.736,0.017-3.307-1.235
		c-0.57-1.256-0.017-2.734,1.235-3.307c1.925-0.878,3.977-1.32,6.102-1.32c8.107,0,14.701,6.593,14.701,14.699
		C76.822,73.307,70.229,79.9,62.121,79.9z"/>
</g>
</svg>
