<?xml version="1.0" encoding="utf-8"?>
<!-- Generator: Adobe Illustrator 16.2.1, SVG Export Plug-In . SVG Version: 6.00 Build 0)  -->
<!DOCTYPE svg PUBLIC "-//W3C//DTD SVG 1.1//EN" "http://www.w3.org/Graphics/SVG/1.1/DTD/svg11.dtd">
<svg version="1.1" id="Ebene_1" xmlns="http://www.w3.org/2000/svg" xmlns:xlink="http://www.w3.org/1999/xlink" x="0px" y="0px"
	 width="100px" height="100px" viewBox="0 0 100 100" enable-background="new 0 0 100 100" xml:space="preserve">
<g>
	<path d="M55.268,75.557H41.158c-4.163,0-7.551-3.344-7.551-7.451V47.953c0-0.828,0.672-1.5,1.5-1.5s1.5,0.672,1.5,1.5v20.152
		c0,2.455,2.041,4.451,4.551,4.451h14.109c2.494,0,4.447-1.955,4.447-4.451V51.113c0-3.025,2.49-5.486,5.552-5.486
		s5.552,2.461,5.552,5.484v8.643c0,3.025-2.49,5.486-5.552,5.486c-0.828,0-1.5-0.672-1.5-1.5c0-0.83,0.672-1.5,1.5-1.5
		c1.407,0,2.552-1.115,2.552-2.486v-8.643c0-1.369-1.145-2.484-2.552-2.484s-2.552,1.115-2.552,2.484v16.994
		C62.715,72.213,59.374,75.557,55.268,75.557z"/>
	<path d="M51.311,46.559c-3.197,0-6.172-1.014-8.209-2.789c-1.502,0.662-2.887,0.975-4.277,0.975c-5.317,0-9.643-4.266-9.643-9.51
		s4.325-9.51,9.643-9.51c1.812,0,3.369,0.564,4.434,1.094c1.285-1.523,3.126-2.375,5.121-2.375c2.672,0,5.012,1.48,6.095,3.816
		c0.992-0.613,2.125-0.934,3.351-0.934c3.642,0,6.604,2.924,6.604,6.52c0,0.311-0.051,0.561-0.084,0.725
		c-0.003,0.014-0.005,0.025-0.008,0.037c1.337,0.863,2.154,2.322,2.154,3.83c0,2.467-2.032,4.473-4.53,4.473
		c-0.441,0-0.88-0.062-1.309-0.188C58.736,45.107,55.212,46.559,51.311,46.559z M43.385,40.461c0.385,0,0.765,0.148,1.052,0.432
		l0.543,0.533c1.436,1.324,3.815,2.133,6.331,2.133c3.037,0,5.906-1.162,7.139-2.895l0.415-0.611
		c0.401-0.594,1.163-0.818,1.824-0.541l0.76,0.32c0.122,0.043,0.318,0.078,0.512,0.078c0.844,0,1.53-0.66,1.53-1.473
		c0-0.516-0.356-1.086-0.848-1.354l-0.594-0.291c-0.584-0.287-0.916-0.916-0.822-1.561l0.096-0.66
		c0.011-0.252,0.053-0.455,0.081-0.598c0.009-0.043,0.021-0.086,0.024-0.133c0-1.938-1.616-3.516-3.604-3.516
		c-0.764,0-1.432,0.219-2.042,0.668l-1.124,0.775c-0.371,0.256-0.837,0.332-1.27,0.205c-0.434-0.125-0.786-0.439-0.962-0.854
		l-0.543-1.281c-0.556-1.48-1.922-2.396-3.505-2.396c-1.167,0-2.235,0.523-2.934,1.438l-0.521,0.721
		c-0.429,0.59-1.221,0.787-1.876,0.463l-0.868-0.426c-1.116-0.598-2.292-0.914-3.355-0.914c-3.601,0-6.643,2.98-6.643,6.51
		c0,3.527,3.042,6.51,6.643,6.51c0.997,0,1.976-0.23,3.079-0.725l0.819-0.404C42.934,40.512,43.16,40.461,43.385,40.461z"/>
</g>
</svg>
