<?xml version="1.0" encoding="utf-8"?>
<!-- Generator: Adobe Illustrator 16.2.1, SVG Export Plug-In . SVG Version: 6.00 Build 0)  -->
<!DOCTYPE svg PUBLIC "-//W3C//DTD SVG 1.1//EN" "http://www.w3.org/Graphics/SVG/1.1/DTD/svg11.dtd">
<svg version="1.1" id="Ebene_1" xmlns="http://www.w3.org/2000/svg" xmlns:xlink="http://www.w3.org/1999/xlink" x="0px" y="0px"
	 width="100px" height="100px" viewBox="0 0 100 100" enable-background="new 0 0 100 100" xml:space="preserve">
<g>
	<path d="M55.542,69.116H44.458c-2.824,0-5.123-2.291-5.123-5.108v-2.466c0-2.232,1.125-5.162,2.617-6.815l4.306-4.797
		c0.003-0.004,0.005-0.007,0.007-0.01l-4.273-4.653c-1.514-1.64-2.656-4.567-2.656-6.808v-2.467c0-2.817,2.299-5.108,5.123-5.108
		h11.084c2.826,0,5.123,2.291,5.123,5.108v2.467c0,2.239-1.143,5.168-2.656,6.81l-4.273,4.651c0.004,0.004,0.006,0.007,0.008,0.011
		l4.307,4.798c1.49,1.651,2.615,4.581,2.615,6.813v2.466C60.665,66.825,58.368,69.116,55.542,69.116 M49.868,66.716h5.674
		c1.502,0,2.723-1.215,2.723-2.708v-2.466c0-1.65-0.896-3.986-2-5.208l-4.357-4.855c-0.025-0.027-0.049-0.057-0.072-0.088
		c-0.164-0.222-0.549-0.808-0.563-1.434c-0.016-0.771,0.327-1.246,0.435-1.373l4.537-4.94c1.115-1.21,2.021-3.536,2.021-5.185
		v-2.467c0-1.493-1.221-2.708-2.723-2.708H44.458c-1.502,0-2.723,1.215-2.723,2.708v2.467c0,1.649,0.906,3.975,2.021,5.183
		l4.499,4.899c0.143,0.169,0.489,0.645,0.473,1.416c-0.014,0.626-0.399,1.212-0.565,1.435c-0.022,0.03-0.045,0.06-0.07,0.087
		l-4.355,4.854c-1.104,1.224-2.002,3.56-2.002,5.21v2.466c0,1.493,1.221,2.708,2.723,2.708H49.868z"/>
	<path d="M54.981,64.122h-9.963c-0.662,0-1.199-0.538-1.199-1.2c0-0.663,0.537-1.2,1.199-1.2h9.963c0.662,0,1.199,0.537,1.199,1.2
		C56.181,63.584,55.644,64.122,54.981,64.122"/>
	<path d="M51.548,45.228h-3.096c-0.662,0-1.199-0.537-1.199-1.199c0-0.663,0.537-1.2,1.199-1.2h3.096c0.662,0,1.199,0.537,1.199,1.2
		C52.747,44.69,52.21,45.228,51.548,45.228"/>
	<rect x="39.335" y="30.884" fill="none" width="21.33" height="38.232"/>
</g>
</svg>
