<?xml version="1.0" encoding="utf-8"?>
<!-- Generator: Adobe Illustrator 16.2.1, SVG Export Plug-In . SVG Version: 6.00 Build 0)  -->
<!DOCTYPE svg PUBLIC "-//W3C//DTD SVG 1.1//EN" "http://www.w3.org/Graphics/SVG/1.1/DTD/svg11.dtd">
<svg version="1.1" id="Ebene_1" xmlns="http://www.w3.org/2000/svg" xmlns:xlink="http://www.w3.org/1999/xlink" x="0px" y="0px"
	 width="100px" height="100px" viewBox="0 0 100 100" enable-background="new 0 0 100 100" xml:space="preserve">
<path enable-background="new    " d="M55.818,71.833c-0.812,0-1.47-0.657-1.47-1.47V57.842c0-0.33-1.467-1.37-4.012-1.37h-0.674
	c-2.545,0-4.011,1.04-4.011,1.37v12.518c0,0.812-0.658,1.47-1.47,1.47H22.137c-0.437,0-0.85-0.194-1.129-0.529
	s-0.396-0.778-0.317-1.207l4.713-25.616c0-0.01,0-0.021,0-0.031V29.637c0-0.812,0.658-1.47,1.47-1.47h10.005
	c0.812,0,1.471,0.657,1.471,1.47v5.935h5.035v-5.935c0-0.812,0.658-1.47,1.471-1.47h10.29c0.811,0,1.47,0.657,1.47,1.47v5.935h5.038
	v-5.935c0-0.812,0.659-1.47,1.471-1.47h9.952c0.812,0,1.47,0.657,1.47,1.47v14.561l4.764,25.896
	c0.079,0.429-0.037,0.872-0.316,1.207s-0.692,0.529-1.129,0.529H55.933C55.895,71.832,55.857,71.833,55.818,71.833z M57.289,68.889
	h18.81l-4.406-23.95c-0.057-0.153-0.087-0.319-0.087-0.493V31.107h-7.013v5.934c0,0.812-0.658,1.471-1.47,1.471h-7.979
	c-0.812,0-1.471-0.658-1.471-1.471v-5.934h-7.349v5.934c0,0.812-0.659,1.471-1.47,1.471h-7.977c-0.812,0-1.47-0.658-1.47-1.471
	v-5.934h-7.065v13.068c0.036,0.176,0.04,0.357,0.007,0.536l-4.448,24.177h18.81V57.842c0-2.457,2.988-4.311,6.951-4.311h0.674
	c3.963,0,6.953,1.854,6.953,4.311V68.889z"/>
</svg>
