<?xml version="1.0" encoding="utf-8"?>
<!-- Generator: Adobe Illustrator 16.2.1, SVG Export Plug-In . SVG Version: 6.00 Build 0)  -->
<!DOCTYPE svg PUBLIC "-//W3C//DTD SVG 1.1//EN" "http://www.w3.org/Graphics/SVG/1.1/DTD/svg11.dtd">
<svg version="1.1" id="Ebene_1" xmlns="http://www.w3.org/2000/svg" xmlns:xlink="http://www.w3.org/1999/xlink" x="0px" y="0px"
	 width="100px" height="100px" viewBox="0 0 100 100" enable-background="new 0 0 100 100" xml:space="preserve">
<g>
	<path d="M61.824,37H59v-1.726c0-0.828-0.672-1.5-1.5-1.5s-1.5,0.672-1.5,1.5V37H43v-1.726c0-0.828-0.672-1.5-1.5-1.5
		s-1.5,0.672-1.5,1.5V37h-3.012C34.186,37,32,39.554,32,42.356v18.836C32,63.995,34.186,66,36.988,66h24.836
		C64.627,66,67,63.995,67,61.192V42.356C67,39.554,64.627,37,61.824,37z M36.988,40H40v2.274c0,0.828,0.672,1.5,1.5,1.5
		s1.5-0.672,1.5-1.5V40h13v2.274c0,0.828,0.672,1.5,1.5,1.5s1.5-0.672,1.5-1.5V40h2.824C62.973,40,64,41.208,64,42.356V46H35v-3.644
		C35,41.208,35.84,40,36.988,40z M61.824,63H36.988C35.84,63,35,62.341,35,61.192V49h29v12.192C64,62.341,62.973,63,61.824,63z"/>
</g>
</svg>
