<?xml version="1.0" encoding="utf-8"?>
<!-- Generator: Adobe Illustrator 16.2.1, SVG Export Plug-In . SVG Version: 6.00 Build 0)  -->
<!DOCTYPE svg PUBLIC "-//W3C//DTD SVG 1.1//EN" "http://www.w3.org/Graphics/SVG/1.1/DTD/svg11.dtd">
<svg version="1.1" id="Ebene_1" xmlns="http://www.w3.org/2000/svg" xmlns:xlink="http://www.w3.org/1999/xlink" x="0px" y="0px"
	 width="100px" height="100px" viewBox="0 0 100 100" enable-background="new 0 0 100 100" xml:space="preserve">
<path id="search" d="M68.293,68.294c-0.61,0.608-1.598,0.608-2.207,0l-9.316-9.311c-2.693,2.199-6.132,3.52-9.881,3.52
	c-8.637,0-15.64-6.996-15.64-15.627c0-8.63,7.003-15.626,15.64-15.626c8.636,0,15.637,6.996,15.637,15.626
	c0,1.701-0.295,3.33-0.799,4.861c-0.031,0.189-0.095,0.365-0.186,0.525c-0.049,0.131-0.086,0.271-0.139,0.402l-0.089-0.088
	c-0.284,0.297-0.684,0.484-1.127,0.484c-0.862,0-1.562-0.699-1.562-1.562l-0.016-0.145c0-0.409,0.162-0.78,0.422-1.059l-0.145-0.146
	c0.289-1.053,0.456-2.157,0.456-3.304c0-6.89-5.589-12.475-12.483-12.475c-6.896,0-12.485,5.585-12.485,12.475
	c0,6.891,5.59,12.477,12.485,12.477c3.416,0,6.514-1.375,8.767-3.599c0.009-0.011,0.015-0.022,0.022-0.034l2.261,0.038l5.373,5.371
	l0.011-0.011l5,4.997C68.903,66.694,68.903,67.684,68.293,68.294z"/>
</svg>
