<?xml version="1.0" encoding="utf-8"?>
<!-- Generator: Adobe Illustrator 16.0.0, SVG Export Plug-In . SVG Version: 6.00 Build 0)  -->
<!DOCTYPE svg PUBLIC "-//W3C//DTD SVG 1.1//EN" "http://www.w3.org/Graphics/SVG/1.1/DTD/svg11.dtd">
<svg version="1.1" id="Ebene_1" xmlns="http://www.w3.org/2000/svg" xmlns:xlink="http://www.w3.org/1999/xlink" x="0px" y="0px"
	 width="595.281px" height="111px" viewBox="0 244.445 595.281 111" enable-background="new 0 244.445 595.281 111"
	 xml:space="preserve">
<g>
	<g>
		<path fill="#D9426A" d="M287.791,293.899c-0.4,0-0.8-0.1-1.1-0.2c-1.5-0.6-2.1-2.3-1.5-3.8l11.1-23.999c0.5-1.1,1.5-1.7,2.6-1.7
			l0,0c1.199,0,2.199,0.7,2.6,1.7l11.1,23.999c0.6,1.5,0,3.2-1.5,3.8c-1.5,0.601-3.199,0-3.799-1.5l-8.4-17.899l-8.4,17.899
			C289.99,293.3,288.99,293.899,287.791,293.899z"/>
		<path fill="#D9426A" d="M313.189,333.698c-8.199,0-15.199-5.8-16.699-13.8l-1.2-5.3c-1-5.399-5.7-9.199-11.1-9.199
			c-6.2,0-11.2,5-11.2,11.199c0,6.2,5,11.2,11.2,11.2c1.6,0,3.2-0.301,4.7-1c1.5-0.7,3.2,0,3.8,1.399c0.7,1.5,0,3.2-1.4,3.8
			c-2.2,1-4.6,1.5-7.1,1.5c-9.399,0-17-7.6-17-16.999s7.6-17,17-17c8.2,0,15.2,5.8,16.7,13.8l1.199,5.3c1,5.4,5.701,9.2,11.1,9.2
			c6.201,0,11.201-5,11.201-11.2c0-6.199-5-11.199-11.201-11.199c-1.6,0-3.199,0.3-4.699,1s-3.199,0-3.801-1.4
			c-0.699-1.5,0-3.2,1.4-3.8c2.201-1,4.6-1.5,7.1-1.5c9.4,0,17,7.6,17,17C330.189,326.098,322.589,333.698,313.189,333.698z"/>
	</g>
</g>
<g>
	<path fill="#D9426A" d="M327.99,267.6c0-0.8,0.699-1.5,1.5-1.5h0.299c0.701,0,1.1,0.3,1.4,0.8l5.199,8.2l5.201-8.2
		c0.299-0.5,0.799-0.8,1.398-0.8h0.301c0.9,0,1.5,0.7,1.5,1.5V282c0,0.8-0.699,1.5-1.5,1.5s-1.5-0.7-1.5-1.5v-10.3l-4.199,6.3
		c-0.301,0.5-0.701,0.8-1.301,0.8c-0.5,0-0.9-0.3-1.299-0.8l-4.201-6.3V282c0,0.8-0.699,1.5-1.5,1.5c-0.799,0-1.5-0.6-1.5-1.5V267.6
		H327.99z"/>
	<path fill="#D9426A" d="M349.289,281.9v-14.2c0-0.899,0.699-1.5,1.5-1.5h10c0.699,0,1.4,0.601,1.4,1.4s-0.602,1.399-1.4,1.399h-8.5
		v4.5h7.4c0.699,0,1.398,0.601,1.398,1.4c0,0.7-0.6,1.3-1.398,1.3h-7.4v4.6h8.6c0.699,0,1.4,0.601,1.4,1.4s-0.6,1.399-1.4,1.399
		h-10.1C349.988,283.4,349.289,282.7,349.289,281.9z"/>
	<path fill="#D9426A" d="M365.789,267.7c0-0.899,0.699-1.5,1.5-1.5h6.1c2.199,0,3.898,0.601,5,1.7c0.898,0.9,1.398,2.2,1.398,3.7
		l0,0c0,2.8-1.6,4.399-3.898,5.1l3.299,4.2c0.301,0.399,0.5,0.699,0.5,1.199c0,0.801-0.699,1.4-1.5,1.4c-0.699,0-1.1-0.3-1.5-0.8
		l-4.199-5.3h-3.801v4.6c0,0.8-0.699,1.5-1.5,1.5c-0.898,0-1.5-0.7-1.5-1.5v-14.3H365.789z M373.187,274.7
		c2.201,0,3.5-1.1,3.5-2.899l0,0c0-1.801-1.299-2.9-3.6-2.9h-4.4v5.8H373.187z"/>
	<path fill="#D9426A" d="M382.787,274.8L382.787,274.8c0-4.899,3.701-8.999,8.9-8.999c2.699,0,4.4,0.8,5.9,1.899
		c0.299,0.2,0.6,0.7,0.6,1.2c0,0.8-0.701,1.5-1.5,1.5c-0.4,0-0.699-0.1-0.9-0.3c-1.199-1-2.5-1.5-4.1-1.5
		c-3.301,0-5.699,2.7-5.699,6.1l0,0c0,3.4,2.398,6.1,5.699,6.1c1.801,0,3.1-0.6,4.301-1.6c0.199-0.2,0.5-0.3,0.898-0.3
		c0.801,0,1.4,0.6,1.4,1.399c0,0.5-0.199,0.8-0.5,1.101c-1.6,1.399-3.5,2.3-6.199,2.3C386.488,283.7,382.787,279.8,382.787,274.8z"
		/>
	<path fill="#D9426A" d="M401.886,267.6c0-0.8,0.701-1.5,1.5-1.5c0.801,0,1.5,0.7,1.5,1.5V282c0,0.8-0.699,1.5-1.5,1.5
		c-0.9,0-1.5-0.7-1.5-1.5V267.6z"/>
</g>
<g>
	<path fill="#D9426A" d="M191.394,272.5L191.394,272.5c0-3.6,2.7-6.6,6.6-6.6c1.9,0,3.2,0.5,4.3,1.3c0.2,0.2,0.5,0.5,0.5,0.9
		c0,0.6-0.5,1.1-1.1,1.1c-0.3,0-0.5-0.1-0.7-0.3c-0.8-0.6-1.7-1-3.1-1c-2.3,0-4.1,2.1-4.1,4.5l0,0c0,2.6,1.7,4.6,4.3,4.6
		c1.2,0,2.3-0.399,3.1-1V273.6h-2.5c-0.5,0-1-0.4-1-1c0-0.601,0.5-1,1-1h3.5c0.6,0,1.1,0.5,1.1,1.1v3.4c0,0.6-0.3,1.1-0.8,1.399
		c-1.1,0.7-2.6,1.4-4.5,1.4C193.994,279.099,191.394,276.2,191.394,272.5z"/>
	<path fill="#D9426A" d="M206.193,267.301c0-0.601,0.5-1.101,1.1-1.101h4.6c1.6,0,2.9,0.5,3.7,1.3c0.7,0.7,1.1,1.601,1.1,2.7l0,0
		c0,2-1.2,3.3-2.9,3.8l2.4,3.101c0.2,0.3,0.4,0.5,0.4,0.899c0,0.6-0.5,1-1.1,1c-0.5,0-0.8-0.2-1.1-0.6l-3.1-3.9h-2.8v3.4
		c0,0.6-0.5,1.1-1.1,1.1s-1.1-0.5-1.1-1.1v-10.6H206.193z M211.693,272.4c1.6,0,2.6-0.8,2.6-2.1l0,0c0-1.4-1-2.101-2.6-2.101h-3.3
		v4.3h3.3V272.4z"/>
	<path fill="#D9426A" d="M218.593,277.4l4.7-10.6c0.3-0.601,0.7-0.9,1.3-0.9h0.1c0.6,0,1.1,0.3,1.3,0.9l4.7,10.6
		c0.1,0.2,0.1,0.3,0.1,0.5c0,0.6-0.5,1.1-1.1,1.1c-0.5,0-0.9-0.3-1.1-0.8l-1-2.4h-6.2l-1.1,2.5c-0.2,0.5-0.6,0.7-1,0.7
		c-0.6,0-1-0.5-1-1C218.493,277.8,218.493,277.6,218.593,277.4z M226.993,273.8l-2.2-5.1l-2.2,5.1H226.993z"/>
	<path fill="#D9426A" d="M232.292,272.5L232.292,272.5c0-3.699,2.7-6.6,6.6-6.6c2,0,3.3,0.601,4.4,1.4c0.2,0.199,0.4,0.5,0.4,0.899
		c0,0.601-0.5,1.101-1.1,1.101c-0.3,0-0.5-0.101-0.7-0.2c-0.9-0.7-1.8-1.101-3-1.101c-2.4,0-4.2,2-4.2,4.5l0,0
		c0,2.5,1.8,4.5,4.2,4.5c1.3,0,2.3-0.399,3.2-1.2c0.2-0.1,0.4-0.3,0.7-0.3c0.6,0,1.1,0.5,1.1,1c0,0.3-0.2,0.601-0.4,0.8
		c-1.2,1.101-2.6,1.7-4.6,1.7C235.092,279.099,232.292,276.2,232.292,272.5z"/>
	<path fill="#D9426A" d="M246.392,267.1c0-0.6,0.5-1.1,1.1-1.1s1.1,0.5,1.1,1.1V277.8c0,0.601-0.5,1.101-1.1,1.101
		s-1.1-0.5-1.1-1.101V267.1z"/>
	<path fill="#D9426A" d="M251.292,277.4l4.7-10.6c0.3-0.601,0.7-0.9,1.3-0.9h0.1c0.6,0,1.1,0.3,1.3,0.9l4.7,10.6
		c0.1,0.2,0.1,0.3,0.1,0.5c0,0.6-0.5,1.1-1.1,1.1c-0.5,0-0.9-0.3-1.1-0.8l-1-2.4h-6.2l-1.1,2.5c-0.2,0.5-0.6,0.7-1,0.7
		c-0.6,0-1-0.5-1-1C251.192,277.8,251.192,277.6,251.292,277.4z M259.691,273.8l-2.2-5.1l-2.2,5.1H259.691z"/>
	<path fill="#D9426A" d="M265.691,277.4c-0.3-0.2-0.4-0.5-0.4-0.9c0-0.6,0.5-1,1.1-1c0.3,0,0.5,0.101,0.7,0.2
		c1.1,0.8,2.2,1.3,3.6,1.3s2.3-0.7,2.3-1.6l0,0c0-0.9-0.5-1.4-2.9-1.9c-2.7-0.7-4.2-1.5-4.2-3.8l0,0c0-2.2,1.8-3.699,4.3-3.699
		c1.6,0,2.9,0.399,4,1.199c0.3,0.101,0.5,0.5,0.5,0.9c0,0.6-0.5,1-1.1,1c-0.2,0-0.4-0.101-0.6-0.2c-1-0.6-1.9-1-2.9-1
		c-1.3,0-2.1,0.7-2.1,1.5l0,0c0,1,0.6,1.4,3,2c2.7,0.7,4.1,1.6,4.1,3.7l0,0c0,2.399-1.9,3.8-4.6,3.8
		C268.691,279,267.091,278.5,265.691,277.4z"/>
</g>
<g>
	<path fill="#D9426A" d="M14.2,272.2L14.2,272.2c0-3.5,2.7-6.5,6.5-6.5s6.5,2.9,6.5,6.4l0,0c0,3.5-2.7,6.499-6.5,6.499
		C16.899,278.7,14.2,275.8,14.2,272.2z M24.999,272.2L24.999,272.2c0-2.5-1.8-4.5-4.2-4.5c-2.5,0-4.2,2-4.2,4.4l0,0
		c0,2.399,1.8,4.399,4.2,4.399C23.299,276.6,24.999,274.7,24.999,272.2z"/>
	<path fill="#D9426A" d="M29.899,267.1c0-0.6,0.5-1.1,1.1-1.1h4.5c1.4,0,2.5,0.399,3.3,1.1c0.6,0.6,0.8,1.2,0.8,2.1l0,0
		c0,1.5-0.9,2.3-1.8,2.8c1.5,0.5,2.5,1.3,2.5,3l0,0c0,2.2-1.8,3.4-4.6,3.4h-4.7c-0.6,0-1.1-0.5-1.1-1.101V267.1z M35.099,271.2
		c1.4,0,2.4-0.6,2.4-1.7l0,0c0-1-0.8-1.6-2.2-1.6h-3.2v3.3H35.099L35.099,271.2z M35.699,276.5c1.5,0,2.4-0.6,2.4-1.7l0,0
		c0-1.1-0.8-1.699-2.6-1.699h-3.5v3.399H35.699z"/>
	<path fill="#D9426A" d="M42.798,267.1c0-0.6,0.5-1.1,1.1-1.1h4.5c1.6,0,2.8,0.5,3.6,1.199c0.7,0.7,1,1.601,1,2.7l0,0
		c0,2-1.2,3.2-2.8,3.7l2.4,3c0.2,0.3,0.4,0.5,0.4,0.8c0,0.6-0.5,1-1.1,1c-0.5,0-0.8-0.2-1.1-0.601l-3-3.899h-2.8v3.399
		c0,0.601-0.5,1.101-1.1,1.101s-1.1-0.5-1.1-1.101C42.799,277.3,42.799,267.1,42.798,267.1z M48.198,272.2c1.6,0,2.6-0.8,2.6-2.1
		l0,0c0-1.3-1-2.101-2.6-2.101h-3.2v4.2H48.198z"/>
	<path fill="#D9426A" d="M55.798,267c0-0.6,0.5-1.1,1.1-1.1c0.6,0,1.1,0.5,1.1,1.1v10.5c0,0.601-0.5,1.1-1.1,1.1
		c-0.6,0-1.1-0.499-1.1-1.1V267z"/>
	<path fill="#D9426A" d="M60.798,272.2L60.798,272.2c0-3.5,2.7-6.5,6.4-6.5c1.9,0,3.1,0.4,4.3,1.3c0.2,0.2,0.4,0.5,0.4,0.9
		c0,0.6-0.5,1.1-1.1,1.1c-0.3,0-0.5-0.1-0.7-0.199c-0.8-0.601-1.7-1-3-1c-2.3,0-4,2-4,4.399l0,0c0,2.6,1.7,4.5,4.2,4.5
		c1.2,0,2.2-0.4,3-0.9v-2.3h-2.5c-0.5,0-1-0.399-1-0.899s0.4-1,1-1h3.5c0.6,0,1.1,0.5,1.1,1.1v3.3c0,0.601-0.2,1.101-0.8,1.4
		c-1.1,0.7-2.6,1.399-4.4,1.399C63.398,278.7,60.798,275.9,60.798,272.2z"/>
	<path fill="#D9426A" d="M74.598,277l4.6-10.3c0.2-0.6,0.7-0.899,1.3-0.899h0.1c0.6,0,1.1,0.3,1.3,0.899l4.6,10.3
		c0.1,0.2,0.1,0.3,0.1,0.5c0,0.601-0.4,1.1-1,1.1c-0.5,0-0.9-0.3-1.1-0.8l-1-2.3h-6.1l-1.1,2.4c-0.2,0.399-0.6,0.7-1,0.7
		c-0.6,0-1-0.4-1-1C74.498,277.4,74.498,277.2,74.598,277z M82.797,273.5l-2.2-5l-2.2,5H82.797z"/>
	<path fill="#D9426A" d="M89.097,267.1c0-0.6,0.5-1.1,1.1-1.1h3.5c3.9,0,6.6,2.699,6.6,6.199l0,0c0,3.5-2.7,6.2-6.6,6.2h-3.5
		c-0.6,0-1.1-0.5-1.1-1.101V267.1z M93.697,276.5c2.6,0,4.3-1.8,4.3-4.2l0,0c0-2.399-1.7-4.199-4.3-4.199h-2.5v8.5h2.5V276.5z"/>
	<path fill="#D9426A" d="M102.497,272.2L102.497,272.2c0-3.5,2.7-6.5,6.5-6.5c3.8,0,6.5,2.9,6.5,6.4l0,0c0,3.5-2.7,6.499-6.5,6.499
		C105.097,278.7,102.497,275.8,102.497,272.2z M113.196,272.2L113.196,272.2c0-2.5-1.8-4.5-4.2-4.5c-2.5,0-4.2,2-4.2,4.4l0,0
		c0,2.399,1.8,4.399,4.2,4.399C111.496,276.6,113.196,274.7,113.196,272.2z"/>
</g>
<g>
	<path fill="#D9426A" d="M498.583,296.8c0-0.4,0.301-0.8,0.801-0.8h2.6c2.799,0,4.799,1.899,4.799,4.499l0,0c0,2.5-2,4.5-4.799,4.5
		h-2.6c-0.4,0-0.801-0.3-0.801-0.8V296.8z M501.884,303.499c1.898,0,3.1-1.3,3.1-3l0,0c0-1.8-1.201-3.1-3.1-3.1h-1.801v6.1H501.884z
		"/>
	<path fill="#D9426A" d="M507.683,303.899l3.301-7.5c0.199-0.399,0.5-0.6,1-0.6h0.1c0.4,0,0.799,0.2,0.9,0.6l3.299,7.5
		c0.1,0.1,0.1,0.2,0.1,0.3c0,0.4-0.299,0.8-0.699,0.8s-0.6-0.2-0.801-0.6l-0.699-1.7h-4.4l-0.799,1.7c-0.102,0.3-0.4,0.5-0.701,0.5
		c-0.4,0-0.699-0.3-0.699-0.7C507.583,304.199,507.583,304.099,507.683,303.899z M513.484,301.399l-1.602-3.6l-1.6,3.6H513.484z"/>
	<path fill="#D9426A" d="M518.083,296.699c0-0.399,0.299-0.8,0.799-0.8h0.201c0.398,0,0.6,0.2,0.799,0.5l4.5,5.8v-5.5
		c0-0.399,0.301-0.8,0.801-0.8c0.4,0,0.799,0.3,0.799,0.8v7.6c0,0.4-0.299,0.801-0.799,0.801h-0.1c-0.4,0-0.602-0.2-0.801-0.5
		l-4.6-6v5.699c0,0.4-0.301,0.801-0.801,0.801c-0.4,0-0.799-0.301-0.799-0.801V296.699L518.083,296.699z"/>
	<path fill="#D9426A" d="M528.283,296.699c0-0.399,0.299-0.8,0.799-0.8c0.4,0,0.801,0.3,0.801,0.8v3.8l4.301-4.3
		c0.199-0.199,0.398-0.3,0.699-0.3c0.4,0,0.699,0.3,0.699,0.7c0,0.2-0.1,0.399-0.299,0.6l-2.801,2.7l3,3.8
		c0.1,0.2,0.201,0.3,0.201,0.6c0,0.4-0.301,0.801-0.801,0.801c-0.301,0-0.5-0.2-0.699-0.4l-2.9-3.7l-1.5,1.4v1.899
		c0,0.4-0.301,0.801-0.801,0.801c-0.4,0-0.799-0.301-0.799-0.801v-7.6H528.283z"/>
	<path fill="#D9426A" d="M541.082,301.099v-4.5c0-0.4,0.301-0.8,0.801-0.8c0.4,0,0.799,0.3,0.799,0.8v4.399
		c0,1.7,0.9,2.601,2.301,2.601s2.301-0.801,2.301-2.5v-4.5c0-0.4,0.299-0.8,0.799-0.8c0.4,0,0.801,0.3,0.801,0.8v4.399
		c0,2.7-1.5,4-3.9,4C542.582,305.099,541.082,303.699,541.082,301.099z"/>
	<path fill="#D9426A" d="M554.281,296.999c0-0.1-0.1-0.199-0.1-0.3c0-0.399,0.4-0.8,0.801-0.8s0.699,0.2,0.799,0.601l2.102,6.199
		l2-6.199c0.1-0.4,0.398-0.601,0.799-0.601h0.1c0.4,0,0.701,0.3,0.801,0.601l2,6.199l2.1-6.199c0.1-0.301,0.4-0.601,0.801-0.601
		c0.398,0,0.799,0.3,0.799,0.8c0,0.101,0,0.2-0.1,0.3l-2.699,7.5c-0.102,0.4-0.4,0.7-0.801,0.7h-0.199c-0.4,0-0.701-0.2-0.801-0.7
		l-2-5.899l-2,5.899c-0.1,0.4-0.4,0.7-0.799,0.7h-0.201c-0.4,0-0.699-0.2-0.799-0.7L554.281,296.999z"/>
	<path fill="#D9426A" d="M568.982,304.199V296.8c0-0.4,0.299-0.8,0.799-0.8h5.201c0.398,0,0.699,0.3,0.699,0.699
		c0,0.4-0.301,0.7-0.699,0.7h-4.4v2.3h3.9c0.398,0,0.699,0.3,0.699,0.7s-0.301,0.7-0.699,0.7h-3.9v2.399h4.5
		c0.4,0,0.699,0.3,0.699,0.7s-0.299,0.7-0.699,0.7h-5.301C569.281,304.999,568.982,304.599,568.982,304.199z"/>
	<path fill="#D9426A" d="M577.582,296.699c0-0.399,0.299-0.8,0.799-0.8c0.4,0,0.801,0.3,0.801,0.8v6.8h4.1
		c0.4,0,0.699,0.3,0.699,0.7s-0.299,0.7-0.699,0.7h-4.9c-0.4,0-0.799-0.3-0.799-0.8V296.699L577.582,296.699z"/>
</g>
<g>
	<path fill="#D9426A" d="M99.896,294.099c0-0.5,0.4-1,1-1c0.5,0,1,0.4,1,1v4.7l5.2-5.2c0.2-0.2,0.5-0.4,0.8-0.4
		c0.5,0,0.9,0.4,0.9,0.9c0,0.3-0.1,0.5-0.3,0.7l-3.4,3.3l3.7,4.6c0.2,0.2,0.3,0.4,0.3,0.7c0,0.5-0.4,0.899-1,0.899
		c-0.4,0-0.6-0.199-0.8-0.5l-3.5-4.499l-1.8,1.699v2.3c0,0.5-0.4,1-1,1s-1-0.399-1-1v-9.199H99.896z"/>
	<path fill="#D9426A" d="M111.196,294.099c0-0.5,0.4-1,1-1c0.5,0,1,0.4,1,1v9.199c0,0.5-0.4,1-1,1s-1-0.399-1-1V294.099z"/>
	<path fill="#D9426A" d="M116.196,294.099c0-0.5,0.4-1,1-1c0.5,0,1,0.4,1,1v9.199c0,0.5-0.4,1-1,1c-0.5,0-1-0.399-1-1V294.099z"/>
	<path fill="#D9426A" d="M123.796,295h-2.7c-0.5,0-0.9-0.4-0.9-0.9s0.4-0.9,0.9-0.9h7.299c0.5,0,0.9,0.4,0.9,0.9s-0.4,0.9-0.9,0.9
		h-2.7v8.299c0,0.5-0.4,1-1,1c-0.5,0-1-0.399-1-1V295H123.796z"/>
	<path fill="#D9426A" d="M130.196,298.8L130.196,298.8c0-3.101,2.4-5.7,5.8-5.7s5.7,2.6,5.7,5.7l0,0c0,3.1-2.4,5.699-5.8,5.699
		C132.596,304.399,130.196,301.899,130.196,298.8z M139.695,298.8L139.695,298.8c0-2.2-1.6-3.9-3.7-3.9c-2.1,0-3.7,1.7-3.7,3.9l0,0
		c0,2.1,1.6,3.899,3.7,3.899C138.095,302.699,139.695,300.899,139.695,298.8z"/>
	<path fill="#D9426A" d="M143.695,302.999c-0.2-0.2-0.4-0.399-0.4-0.7c0-0.5,0.4-0.899,0.9-0.899c0.3,0,0.4,0.1,0.6,0.2
		c0.9,0.7,1.9,1.1,3.1,1.1c1.2,0,1.9-0.6,1.9-1.399l0,0c0-0.801-0.4-1.2-2.5-1.7c-2.3-0.601-3.7-1.3-3.7-3.3l0,0
		c0-1.9,1.6-3.2,3.8-3.2c1.4,0,2.5,0.4,3.5,1c0.2,0.1,0.4,0.4,0.4,0.8c0,0.5-0.4,0.9-0.9,0.9c-0.2,0-0.3,0-0.5-0.101
		c-0.8-0.6-1.7-0.8-2.5-0.8c-1.1,0-1.8,0.601-1.8,1.3l0,0c0,0.8,0.5,1.2,2.6,1.7c2.3,0.6,3.5,1.4,3.5,3.2l0,0c0,2.1-1.6,3.3-3.9,3.3
		C146.295,304.399,144.895,303.899,143.695,302.999z"/>
</g>
<g>
	<path fill="#D9426A" d="M402.386,300.399L402.386,300.399c0-4.3,3.201-7.899,7.801-7.899c2.299,0,3.799,0.5,5.199,1.5
		c0.301,0.199,0.5,0.6,0.5,1.1c0,0.7-0.6,1.3-1.301,1.3c-0.299,0-0.6-0.2-0.799-0.3c-1-0.7-2-1.2-3.699-1.2
		c-2.801,0-4.9,2.4-4.9,5.3l0,0c0,3.1,2,5.4,5.1,5.4c1.4,0,2.699-0.5,3.6-1.101v-2.8h-3c-0.6,0-1.199-0.5-1.199-1.1
		c0-0.601,0.5-1.2,1.199-1.2h4.199c0.801,0,1.301,0.6,1.301,1.3v4c0,0.8-0.301,1.3-0.9,1.7c-1.299,0.899-3.1,1.6-5.398,1.6
		C405.486,308.199,402.386,304.799,402.386,300.399z"/>
	<path fill="#D9426A" d="M419.986,294.199c0-0.8,0.6-1.3,1.301-1.3h5.398c1.9,0,3.4,0.601,4.4,1.5c0.801,0.8,1.301,1.9,1.301,3.3
		l0,0c0,2.4-1.4,3.9-3.4,4.5l2.9,3.6c0.299,0.301,0.4,0.601,0.4,1c0,0.7-0.602,1.2-1.301,1.2c-0.6,0-1-0.3-1.301-0.7l-3.699-4.699
		h-3.301v4.1c0,0.7-0.6,1.3-1.299,1.3c-0.801,0-1.301-0.6-1.301-1.3v-12.5H419.986z M426.486,300.3c1.9,0,3.1-1,3.1-2.5l0,0
		c0-1.601-1.199-2.5-3.1-2.5h-3.9v5.1h3.9V300.3z"/>
	<path fill="#D9426A" d="M434.685,306.199l5.6-12.5c0.301-0.699,0.801-1.1,1.602-1.1h0.1c0.799,0,1.299,0.4,1.6,1.1l5.6,12.5
		c0.1,0.2,0.199,0.4,0.199,0.6c0,0.7-0.5,1.3-1.299,1.3c-0.6,0-1.1-0.399-1.301-0.899l-1.199-2.8h-7.301l-1.299,2.899
		c-0.201,0.5-0.701,0.8-1.199,0.8c-0.701,0-1.201-0.499-1.201-1.199C434.585,306.599,434.585,306.399,434.685,306.199z
		 M444.585,301.899l-2.699-6.1l-2.701,6.1H444.585z"/>
	<path fill="#D9426A" d="M451.585,306.799L451.585,306.799c0-0.5,0.199-0.899,0.5-1.3l8.5-10.3h-7.6c-0.602,0-1.201-0.5-1.201-1.199
		c0-0.7,0.5-1.2,1.201-1.2h9.898c0.6,0,1.201,0.5,1.201,1.2v0.1c0,0.5-0.201,0.8-0.5,1.2l-8.5,10.3h7.898
		c0.602,0,1.201,0.5,1.201,1.199c0,0.601-0.5,1.2-1.201,1.2h-10.199C452.085,307.899,451.585,307.399,451.585,306.799z"/>
	<path fill="#D9426A" d="M467.484,294c0-0.7,0.602-1.301,1.301-1.301s1.299,0.601,1.299,1.301v12.699c0,0.7-0.6,1.3-1.299,1.3
		c-0.801,0-1.301-0.6-1.301-1.3V294z"/>
	<path fill="#D9426A" d="M474.185,306.599v-12.4c0-0.8,0.6-1.3,1.299-1.3h8.801c0.6,0,1.199,0.5,1.199,1.2s-0.5,1.2-1.199,1.2h-7.5
		v3.899h6.5c0.6,0,1.199,0.5,1.199,1.2c0,0.6-0.5,1.2-1.199,1.2h-6.5v4.1h7.6c0.6,0,1.199,0.5,1.199,1.2s-0.5,1.2-1.199,1.2h-8.9
		C474.685,307.899,474.185,307.299,474.185,306.599z"/>
</g>
<g>
	<path fill="#D9426A" d="M126.996,268.801c0-0.4,0.3-0.7,0.7-0.7h2.2c2.4,0,4.1,1.6,4.1,3.8l0,0c0,2.1-1.7,3.8-4.1,3.8h-2.2
		c-0.4,0-0.7-0.3-0.7-0.7V268.801z M129.896,274.5c1.6,0,2.6-1.1,2.6-2.6l0,0c0-1.5-1-2.6-2.6-2.6h-1.5v5.199H129.896z"/>
	<path fill="#D9426A" d="M134.795,275.1L134.795,275.1c0-0.301,0.1-0.5,0.3-0.7l4.3-5.2h-3.8c-0.3,0-0.6-0.3-0.6-0.6
		s0.3-0.601,0.6-0.601h5c0.3,0,0.6,0.301,0.6,0.601l0,0c0,0.2-0.1,0.399-0.2,0.6l-4.3,5.2h4c0.3,0,0.6,0.3,0.6,0.6
		s-0.3,0.601-0.6,0.601h-5.2C135.096,275.7,134.795,275.4,134.795,275.1z"/>
	<path fill="#D9426A" d="M142.795,268.7c0-0.399,0.3-0.7,0.7-0.7s0.7,0.301,0.7,0.7v6.4c0,0.399-0.3,0.699-0.7,0.699
		s-0.7-0.3-0.7-0.699V268.7z"/>
	<path fill="#D9426A" d="M146.195,275v-6.3c0-0.399,0.3-0.7,0.7-0.7h4.4c0.3,0,0.6,0.301,0.6,0.601s-0.3,0.6-0.6,0.6h-3.8v2h3.3
		c0.3,0,0.6,0.3,0.6,0.601c0,0.3-0.3,0.6-0.6,0.6h-3.3v2h3.8c0.3,0,0.6,0.3,0.6,0.6s-0.1,0.4-0.3,0.601c-0.3,0.3-0.5,0.5-0.5,0.699
		c0,0.301,0.2,0.4,0.5,0.4c0.3,0.1,0.4,0.2,0.4,0.3c0,0.2-0.2,0.3-0.4,0.3c-0.7,0-1.4-0.3-1.4-0.899c0-0.3,0.2-0.601,0.4-0.9h-3.7
		C146.495,275.7,146.195,275.4,146.195,275z"/>
	<path fill="#D9426A" d="M153.495,268.7c0-0.399,0.3-0.7,0.7-0.7s0.7,0.301,0.7,0.7v3.2l3.6-3.6c0.2-0.2,0.3-0.301,0.6-0.301
		c0.4,0,0.6,0.301,0.6,0.601c0,0.2-0.1,0.399-0.2,0.5l-2.4,2.3l2.6,3.2c0.1,0.1,0.2,0.3,0.2,0.5c0,0.399-0.3,0.699-0.7,0.699
		c-0.3,0-0.4-0.1-0.6-0.3l-2.4-3.1l-1.2,1.2v1.6c0,0.4-0.3,0.7-0.7,0.7s-0.7-0.3-0.7-0.7v-6.5H153.495z"/>
	<path fill="#D9426A" d="M160.995,272.5v-3.8c0-0.399,0.3-0.7,0.7-0.7c0.4,0,0.7,0.301,0.7,0.7v3.7c0,1.399,0.7,2.2,1.9,2.2
		c1.2,0,1.9-0.7,1.9-2.101v-3.8c0-0.399,0.3-0.7,0.7-0.7s0.7,0.301,0.7,0.7v3.7c0,2.3-1.3,3.399-3.3,3.399
		S160.995,274.7,160.995,272.5z"/>
	<path fill="#D9426A" d="M168.794,275c-0.1-0.1-0.2-0.3-0.2-0.5c0-0.399,0.3-0.6,0.6-0.6c0.2,0,0.3,0.1,0.4,0.2
		c0.4,0.399,0.7,0.6,1.2,0.6c0.7,0,1.2-0.5,1.2-1.5v-4.399c0-0.4,0.3-0.7,0.7-0.7s0.7,0.3,0.7,0.7v4.399c0,0.9-0.3,1.6-0.7,2
		s-1.1,0.7-1.9,0.7C169.895,275.8,169.294,275.4,168.794,275z"/>
	<path fill="#D9426A" d="M175.294,275v-6.3c0-0.399,0.3-0.7,0.7-0.7h4.4c0.3,0,0.6,0.301,0.6,0.601s-0.3,0.6-0.6,0.6h-3.8v2h3.3
		c0.3,0,0.6,0.3,0.6,0.601c0,0.3-0.3,0.6-0.6,0.6h-3.3v2h3.8c0.3,0,0.6,0.3,0.6,0.6s-0.1,0.4-0.3,0.601c-0.3,0.3-0.5,0.5-0.5,0.699
		c0,0.301,0.2,0.4,0.5,0.4c0.3,0.1,0.4,0.2,0.4,0.3c0,0.2-0.2,0.3-0.4,0.3c-0.7,0-1.4-0.3-1.4-0.899c0-0.3,0.2-0.601,0.4-0.9h-3.7
		C175.594,275.7,175.294,275.4,175.294,275z"/>
</g>
<g>
	<path fill="#D9426A" d="M207.293,323.299h-2.8c-0.5,0-0.9-0.4-0.9-0.9s0.4-0.899,0.9-0.899h7.5c0.5,0,0.9,0.399,0.9,0.899
		s-0.4,0.9-0.9,0.9h-2.8v8.6c0,0.6-0.5,1-1,1c-0.5,0-1-0.4-1-1v-8.6H207.293z"/>
	<path fill="#D9426A" d="M213.093,331.498l4.2-9.399c0.2-0.5,0.6-0.8,1.2-0.8h0.1c0.6,0,1,0.3,1.2,0.8l4.2,9.399
		c0.1,0.101,0.1,0.3,0.1,0.4c0,0.5-0.4,1-0.9,1s-0.8-0.3-1-0.7l-0.9-2.1h-5.5l-1,2.199c-0.2,0.4-0.5,0.601-0.9,0.601
		c-0.5,0-0.9-0.4-0.9-0.9C212.993,331.798,212.993,331.598,213.093,331.498z M220.493,328.299l-2-4.601l-2,4.601H220.493z"/>
	<path fill="#D9426A" d="M225.292,327.098L225.292,327.098c0-3.3,2.4-5.9,5.9-5.9c1.8,0,2.9,0.5,3.9,1.301
		c0.2,0.199,0.4,0.399,0.4,0.8c0,0.6-0.4,1-1,1c-0.3,0-0.5-0.101-0.6-0.2c-0.8-0.6-1.6-1-2.7-1c-2.2,0-3.7,1.8-3.7,4l0,0
		c0,2.2,1.6,4,3.7,4c1.2,0,2-0.4,2.8-1.101c0.1-0.1,0.4-0.199,0.6-0.199c0.5,0,0.9,0.399,0.9,0.899c0,0.3-0.1,0.6-0.3,0.7
		c-1.1,0.899-2.3,1.5-4.1,1.5C227.792,332.998,225.292,330.398,225.292,327.098z"/>
	<path fill="#D9426A" d="M237.792,322.299c0-0.601,0.4-1,1-1s1,0.399,1,1v4.8l5.4-5.4c0.2-0.199,0.5-0.399,0.8-0.399
		c0.6,0,0.9,0.399,0.9,0.899c0,0.301-0.1,0.5-0.4,0.7l-3.5,3.4l3.8,4.8c0.2,0.199,0.3,0.399,0.3,0.699c0,0.601-0.4,1-1,1
		c-0.4,0-0.6-0.199-0.8-0.5l-3.6-4.699l-1.8,1.8v2.399c0,0.601-0.4,1-1,1s-1-0.399-1-1v-9.499H237.792z"/>
</g>
<g>
	<path fill="#D9426A" d="M14.6,293.8c0-0.7,0.5-1.2,1.2-1.2h3.9c4.3,0,7.3,3,7.3,6.8l0,0c0,3.899-3,6.899-7.3,6.899h-3.9
		c-0.7,0-1.2-0.5-1.2-1.199V293.8z M19.799,304.099c2.9,0,4.8-1.9,4.8-4.601l0,0c0-2.699-1.9-4.699-4.8-4.699h-2.7v9.3H19.799
		L19.799,304.099z"/>
	<path fill="#D9426A" d="M28.499,304.799l5.1-11.399c0.3-0.6,0.8-1,1.5-1h0.1c0.7,0,1.2,0.4,1.4,1l5.1,11.399
		c0.1,0.2,0.1,0.4,0.1,0.5c0,0.601-0.5,1.2-1.1,1.2s-1-0.3-1.2-0.8l-1.1-2.6h-6.7l-1.2,2.699c-0.2,0.5-0.6,0.801-1.1,0.801
		c-0.6,0-1.1-0.5-1.1-1.101C28.399,305.099,28.399,304.999,28.499,304.799z M37.499,300.899l-2.4-5.6l-2.4,5.6H37.499z"/>
	<path fill="#D9426A" d="M44.499,293.699c0-0.699,0.5-1.199,1.2-1.199h0.3c0.6,0,0.9,0.3,1.3,0.699l6.9,8.9v-8.4
		c0-0.6,0.5-1.199,1.2-1.199c0.7,0,1.2,0.5,1.2,1.199v11.5c0,0.7-0.5,1.2-1.2,1.2h-0.1c-0.6,0-0.9-0.3-1.3-0.7l-7.1-9.2v8.7
		c0,0.6-0.5,1.2-1.2,1.2c-0.7,0-1.2-0.5-1.2-1.2V293.699z"/>
	<path fill="#D9426A" d="M59.998,293.699c0-0.699,0.5-1.199,1.2-1.199c0.7,0,1.2,0.5,1.2,1.199v5.8l6.5-6.6c0.3-0.3,0.6-0.5,1-0.5
		c0.7,0,1.1,0.5,1.1,1.101c0,0.399-0.2,0.6-0.4,0.899l-4.3,4.1l4.6,5.8c0.2,0.301,0.3,0.5,0.3,0.9c0,0.7-0.5,1.2-1.2,1.2
		c-0.5,0-0.8-0.2-1-0.601l-4.4-5.6l-2.2,2.2v2.8c0,0.7-0.5,1.2-1.2,1.2c-0.7,0-1.2-0.5-1.2-1.2V293.699z"/>
	<path fill="#D9426A" d="M73.998,305.099v-11.3c0-0.7,0.5-1.2,1.2-1.2h8c0.6,0,1.1,0.5,1.1,1.1c0,0.601-0.5,1.101-1.1,1.101h-6.8
		v3.6h5.9c0.6,0,1.1,0.5,1.1,1.1c0,0.601-0.5,1.101-1.1,1.101h-5.9v3.699h6.9c0.6,0,1.1,0.5,1.1,1.101c0,0.6-0.5,1.1-1.1,1.1h-8.1
		C74.498,306.299,73.998,305.799,73.998,305.099z"/>
</g>
<g>
	<path fill="#D9426A" d="M440.886,325.098h-2.201c-0.4,0-0.699-0.3-0.699-0.7c0-0.399,0.299-0.7,0.699-0.7h6.1
		c0.4,0,0.701,0.301,0.701,0.7c0,0.4-0.301,0.7-0.701,0.7h-2.199v7c0,0.399-0.4,0.8-0.801,0.8c-0.398,0-0.799-0.4-0.799-0.8v-7
		H440.886z"/>
	<path fill="#D9426A" d="M447.185,324.299c0-0.4,0.4-0.8,0.801-0.8c0.398,0,0.799,0.399,0.799,0.8v3.1h4.4v-3.1
		c0-0.4,0.4-0.8,0.801-0.8c0.5,0,0.799,0.399,0.799,0.8v7.699c0,0.4-0.4,0.8-0.799,0.8c-0.4,0-0.801-0.399-0.801-0.8v-3.1h-4.4v3.1
		c0,0.4-0.4,0.8-0.799,0.8c-0.5,0-0.801-0.399-0.801-0.8V324.299z"/>
	<path fill="#D9426A" d="M456.685,331.698l3.4-7.6c0.199-0.4,0.5-0.7,1-0.7h0.1c0.5,0,0.799,0.2,1,0.7l3.4,7.6
		c0.1,0.1,0.1,0.2,0.1,0.3c0,0.4-0.301,0.8-0.801,0.8c-0.4,0-0.6-0.199-0.799-0.6l-0.701-1.7h-4.5l-0.799,1.8
		c-0.1,0.301-0.4,0.5-0.701,0.5c-0.398,0-0.699-0.3-0.699-0.699C456.486,331.998,456.585,331.898,456.685,331.698z M462.685,329.098
		l-1.6-3.7l-1.602,3.7H462.685z"/>
	<path fill="#D9426A" d="M467.285,324.398c0-0.399,0.4-0.8,0.801-0.8h0.199c0.4,0,0.6,0.2,0.799,0.5l4.602,6v-5.6
		c0-0.4,0.398-0.801,0.799-0.801s0.801,0.4,0.801,0.801v7.699c0,0.4-0.301,0.8-0.801,0.8h-0.1c-0.4,0-0.6-0.2-0.801-0.5l-4.699-6.1
		v5.8c0,0.4-0.4,0.8-0.799,0.8c-0.4,0-0.801-0.399-0.801-0.8V324.398z"/>
	<path fill="#D9426A" d="M477.685,324.299c0-0.4,0.398-0.8,0.799-0.8s0.801,0.399,0.801,0.8v3.899l4.398-4.399
		c0.201-0.2,0.4-0.3,0.701-0.3c0.4,0,0.699,0.399,0.699,0.699c0,0.2-0.1,0.4-0.299,0.601l-2.9,2.8l3.1,3.8
		c0.1,0.2,0.199,0.3,0.199,0.6c0,0.4-0.398,0.8-0.799,0.8c-0.301,0-0.5-0.199-0.701-0.399l-2.998-3.8l-1.5,1.399v1.9
		c0,0.399-0.4,0.8-0.801,0.8c-0.5,0-0.801-0.4-0.801-0.8v-7.6H477.685z"/>
	<path fill="#D9426A" d="M493.583,329.198l-3.199-4.3c-0.1-0.2-0.201-0.3-0.201-0.6c0-0.4,0.4-0.8,0.801-0.8s0.6,0.199,0.799,0.5
		l2.602,3.699l2.6-3.699c0.199-0.301,0.4-0.5,0.799-0.5c0.5,0,0.801,0.399,0.801,0.8c0,0.2-0.1,0.399-0.199,0.6l-3.102,4.3v2.9
		c0,0.399-0.398,0.8-0.799,0.8s-0.801-0.4-0.801-0.8v-2.9H493.583z"/>
	<path fill="#D9426A" d="M499.183,328.198L499.183,328.198c0-2.6,2-4.8,4.801-4.8c2.799,0,4.799,2.101,4.799,4.7l0,0
		c0,2.6-2,4.8-4.799,4.8C501.183,332.898,499.183,330.798,499.183,328.198z M507.083,328.198L507.083,328.198
		c0-1.8-1.301-3.3-3.1-3.3c-1.801,0-3.1,1.5-3.1,3.2l0,0c0,1.8,1.299,3.3,3.1,3.3C505.783,331.398,507.083,329.998,507.083,328.198z
		"/>
	<path fill="#D9426A" d="M510.583,328.898v-4.6c0-0.4,0.4-0.8,0.799-0.8c0.4,0,0.801,0.399,0.801,0.8v4.5c0,1.699,0.9,2.6,2.301,2.6
		c1.398,0,2.299-0.9,2.299-2.5v-4.6c0-0.4,0.4-0.8,0.801-0.8c0.398,0,0.799,0.399,0.799,0.8v4.5c0,2.699-1.6,4.1-4,4.1
		C512.083,332.898,510.583,331.598,510.583,328.898z"/>
</g>
<g>
	<path fill="#D9426A" d="M14.799,322.299c0-0.601,0.4-1,1-1c0.6,0,1,0.399,1,1v3.8h5.5v-3.8c0-0.601,0.4-1,1-1s1,0.399,1,1v9.6
		c0,0.6-0.4,1-1,1s-1-0.4-1-1v-3.9h-5.5v3.9c0,0.6-0.4,1-1,1c-0.6,0-1-0.4-1-1V322.299z"/>
	<path fill="#D9426A" d="M30.599,332.198l-4-9.399c-0.1-0.101-0.1-0.3-0.1-0.5c0-0.5,0.4-1,1-1c0.5,0,0.9,0.3,1,0.7l3.3,8.3l3.3-8.3
		c0.1-0.301,0.5-0.7,1-0.7c0.6,0,1,0.399,1,1c0,0.1,0,0.3-0.1,0.399l-4,9.5c-0.2,0.5-0.6,0.8-1.2,0.8h-0.1
		C31.199,332.998,30.799,332.698,30.599,332.198z"/>
	<path fill="#D9426A" d="M37.299,331.498l4.2-9.499c0.2-0.5,0.6-0.801,1.2-0.801h0.1c0.6,0,1,0.301,1.2,0.801l4.2,9.499
		c0.1,0.101,0.1,0.3,0.1,0.4c0,0.5-0.4,1-0.9,1s-0.8-0.3-1-0.7l-0.9-2.1h-5.5l-1,2.199c-0.2,0.4-0.5,0.601-0.9,0.601
		c-0.5,0-0.9-0.4-0.9-0.9C37.099,331.798,37.199,331.698,37.299,331.498z M44.798,328.299l-2-4.601l-2,4.601H44.798z"/>
	<path fill="#D9426A" d="M50.598,322.299c0-0.601,0.4-1,1-1c0.6,0,1,0.399,1,1v8.699h5.2c0.5,0,0.9,0.4,0.9,0.9
		s-0.4,0.899-0.9,0.899h-6.2c-0.6,0-1-0.399-1-1V322.299z"/>
	<path fill="#D9426A" d="M59.998,331.498l4.2-9.499c0.2-0.5,0.6-0.801,1.2-0.801h0.1c0.6,0,1,0.301,1.2,0.801l4.2,9.499
		c0.1,0.101,0.1,0.3,0.1,0.4c0,0.5-0.4,1-0.9,1s-0.8-0.3-1-0.7l-0.9-2.1h-5.6l-1,2.199c-0.2,0.4-0.5,0.601-0.9,0.601
		c-0.5,0-0.9-0.4-0.9-0.9C59.898,331.798,59.898,331.698,59.998,331.498z M67.498,328.299l-2-4.601l-2,4.601H67.498z"/>
</g>
<g>
	<path fill="#D9426A" d="M499.183,278.5c-0.299-0.2-0.5-0.5-0.5-0.899c0-0.601,0.5-1.101,1.1-1.101c0.301,0,0.602,0.101,0.701,0.2
		c1.1,0.9,2.4,1.4,3.9,1.4c1.498,0,2.498-0.7,2.498-1.7l0,0c0-1-0.6-1.5-3.1-2.101c-2.898-0.699-4.6-1.6-4.6-4.1l0,0
		c0-2.399,2-4,4.701-4c1.699,0,3.1,0.5,4.398,1.3c0.301,0.2,0.5,0.5,0.5,1c0,0.601-0.5,1.101-1.1,1.101c-0.199,0-0.4-0.101-0.6-0.2
		c-1.1-0.7-2.1-1-3.199-1c-1.4,0-2.301,0.7-2.301,1.6l0,0c0,1.101,0.6,1.5,3.299,2.2c2.9,0.7,4.4,1.8,4.4,4.1l0,0
		c0,2.601-2,4.101-4.9,4.101C502.583,280.2,500.783,279.599,499.183,278.5z"/>
	<path fill="#D9426A" d="M511.984,274.1v-6.9c0-0.699,0.5-1.199,1.199-1.199s1.199,0.5,1.199,1.199v6.8c0,2.601,1.301,3.9,3.5,3.9
		c2.201,0,3.5-1.3,3.5-3.8v-6.9c0-0.699,0.5-1.199,1.201-1.199c0.699,0,1.199,0.5,1.199,1.199v6.7c0,4.1-2.301,6.199-6,6.199
		C514.283,280.2,511.984,278.1,511.984,274.1z"/>
	<path fill="#D9426A" d="M527.183,267.301c0-0.7,0.5-1.2,1.199-1.2c0.701,0,1.199,0.5,1.199,1.2v5.899l6.602-6.6
		c0.299-0.3,0.6-0.5,1-0.5c0.699,0,1.1,0.5,1.1,1.1c0,0.4-0.201,0.7-0.4,0.9l-4.301,4.199l4.701,5.8
		c0.199,0.301,0.299,0.5,0.299,0.9c0,0.7-0.5,1.2-1.199,1.2c-0.5,0-0.801-0.2-1-0.601l-4.4-5.699l-2.299,2.2V279
		c0,0.7-0.5,1.2-1.201,1.2c-0.699,0-1.199-0.5-1.199-1.2v-11.699H527.183z"/>
	<path fill="#D9426A" d="M541.283,267.4c0-0.7,0.5-1.2,1.199-1.2h4.9c1.699,0,3.1,0.5,4,1.4c0.699,0.8,1.1,1.8,1.1,3l0,0
		c0,2.199-1.301,3.6-3.1,4.1l2.699,3.3c0.201,0.3,0.4,0.6,0.4,0.9c0,0.699-0.6,1.1-1.199,1.1c-0.602,0-0.9-0.3-1.201-0.6l-3.4-4.3
		h-3.1v3.699c0,0.7-0.5,1.2-1.199,1.2c-0.701,0-1.201-0.5-1.201-1.2V267.4H541.283z M547.283,273c1.699,0,2.799-0.899,2.799-2.3l0,0
		c0-1.5-1.1-2.3-2.9-2.3h-3.5v4.6H547.283z"/>
	<path fill="#D9426A" d="M554.781,278.4l5.201-11.4c0.299-0.6,0.799-0.999,1.5-0.999h0.1c0.699,0,1.199,0.399,1.4,0.999l5.1,11.5
		c0.1,0.2,0.1,0.4,0.1,0.5c0,0.7-0.5,1.2-1.1,1.2s-1-0.3-1.201-0.9l-1.1-2.6h-6.699l-1.199,2.7c-0.201,0.5-0.602,0.8-1.102,0.8
		c-0.6,0-1.1-0.5-1.1-1.101C554.681,278.8,554.681,278.599,554.781,278.4z M563.882,274.5l-2.4-5.6l-2.4,5.6H563.882z"/>
	<path fill="#D9426A" d="M570.88,267.301c0-0.7,0.5-1.2,1.201-1.2h0.299c0.602,0,0.9,0.3,1.301,0.7l6.9,8.999v-8.499
		c0-0.7,0.5-1.2,1.199-1.2s1.199,0.5,1.199,1.2v11.6c0,0.699-0.5,1.199-1.199,1.199h-0.1c-0.6,0-0.9-0.3-1.301-0.699l-7.1-9.2v8.8
		c0,0.7-0.5,1.2-1.199,1.2c-0.701,0-1.201-0.5-1.201-1.2V267.301L570.88,267.301z"/>
</g>
<g>
	<path fill="#D9426A" d="M169.094,293.3c0-0.601,0.5-1.2,1.2-1.2h0.2c0.5,0,0.9,0.3,1.1,0.6l4,6.3l4-6.3c0.2-0.399,0.6-0.6,1.1-0.6
		h0.2c0.7,0,1.2,0.5,1.2,1.2v11.1c0,0.6-0.5,1.2-1.2,1.2c-0.6,0-1.2-0.5-1.2-1.2v-8l-3.2,4.9c-0.2,0.399-0.6,0.6-1,0.6
		s-0.7-0.2-1-0.6l-3.2-4.801v8c0,0.601-0.5,1.101-1.2,1.101c-0.6,0-1.1-0.5-1.1-1.101V293.3H169.094z"/>
	<path fill="#D9426A" d="M184.794,303.999l4.9-10.999c0.3-0.601,0.7-1,1.4-1h0.1c0.7,0,1.1,0.399,1.4,1l4.9,10.999
		c0.1,0.2,0.1,0.3,0.1,0.5c0,0.601-0.5,1.101-1.1,1.101c-0.6,0-0.9-0.301-1.1-0.801l-1.1-2.499h-6.3l-1.1,2.6
		c-0.2,0.5-0.6,0.7-1.1,0.7c-0.6,0-1.1-0.5-1.1-1.101C184.694,304.299,184.794,304.199,184.794,303.999z M193.494,300.199
		l-2.3-5.399l-2.3,5.399H193.494z"/>
	<path fill="#D9426A" d="M200.293,293.3c0-0.601,0.5-1.2,1.2-1.2c0.6,0,1.2,0.5,1.2,1.2v4.5h6.3v-4.5c0-0.601,0.5-1.2,1.2-1.2
		c0.7,0,1.2,0.5,1.2,1.2v11.199c0,0.601-0.5,1.2-1.2,1.2c-0.6,0-1.2-0.5-1.2-1.2v-4.5h-6.3v4.5c0,0.601-0.5,1.2-1.2,1.2
		c-0.7,0-1.2-0.5-1.2-1.2V293.3z"/>
	<path fill="#D9426A" d="M213.993,303.999l4.9-10.999c0.3-0.601,0.7-1,1.4-1h0.1c0.7,0,1.1,0.399,1.4,1l4.9,10.999
		c0.1,0.2,0.1,0.3,0.1,0.5c0,0.601-0.5,1.101-1.1,1.101s-0.9-0.301-1.1-0.801l-1.1-2.499h-6.5l-1.1,2.6c-0.2,0.5-0.6,0.7-1.1,0.7
		c-0.6,0-1.1-0.5-1.1-1.101C213.793,304.299,213.893,304.199,213.993,303.999z M222.692,300.199l-2.3-5.399l-2.3,5.399H222.692z"/>
	<path fill="#D9426A" d="M229.393,293.3c0-0.601,0.5-1.2,1.2-1.2c0.6,0,1.2,0.5,1.2,1.2v10.1h6c0.6,0,1.1,0.5,1.1,1.1
		c0,0.601-0.5,1.101-1.1,1.101h-7.2c-0.7,0-1.2-0.5-1.2-1.2V293.3z"/>
	<path fill="#D9426A" d="M239.792,298.899L239.792,298.899c0-3.8,2.9-6.899,7-6.899c4.1,0,6.899,3.1,6.899,6.8l0,0
		c0,3.699-2.9,6.899-7,6.899C242.692,305.699,239.792,302.599,239.792,298.899z M251.292,298.899L251.292,298.899
		c0-2.6-1.9-4.8-4.5-4.8c-2.6,0-4.5,2.1-4.5,4.7l0,0c0,2.6,1.9,4.699,4.5,4.699C249.492,303.599,251.292,301.499,251.292,298.899z"
		/>
</g>
<g>
	<path fill="#D9426A" d="M533.783,321.799h-3.201c-0.6,0-1.1-0.5-1.1-1.101c0-0.6,0.5-1.1,1.1-1.1h8.701c0.6,0,1.1,0.5,1.1,1.1
		c0,0.601-0.5,1.101-1.1,1.101h-3.201v9.899c0,0.6-0.5,1.1-1.199,1.1c-0.6,0-1.199-0.5-1.199-1.1v-9.899H533.783z"/>
	<path fill="#D9426A" d="M541.382,326.299L541.382,326.299c0-3.7,2.9-6.8,6.9-6.8s6.898,3.1,6.898,6.8l0,0
		c0,3.699-2.898,6.8-6.898,6.8S541.382,329.998,541.382,326.299z M552.681,326.299L552.681,326.299c0-2.601-1.898-4.7-4.5-4.7
		c-2.6,0-4.398,2.1-4.398,4.6l0,0c0,2.601,1.898,4.7,4.5,4.7C550.882,330.898,552.681,328.799,552.681,326.299z"/>
	<path fill="#D9426A" d="M557.982,320.799c0-0.7,0.5-1.2,1.199-1.2h3.701c4.1,0,6.998,2.8,6.998,6.5l0,0c0,3.7-2.898,6.6-6.998,6.6
		h-3.701c-0.699,0-1.199-0.5-1.199-1.2V320.799z M562.882,330.698c2.799,0,4.6-1.899,4.6-4.399l0,0c0-2.601-1.801-4.5-4.6-4.5
		h-2.602v8.899H562.882z"/>
	<path fill="#D9426A" d="M571.181,331.298l4.9-10.899c0.299-0.6,0.699-0.899,1.398-0.899h0.102c0.699,0,1.1,0.399,1.398,0.899
		l4.9,10.899c0.1,0.2,0.1,0.301,0.1,0.5c0,0.601-0.5,1.101-1.1,1.101c-0.5,0-0.9-0.3-1.1-0.8l-1.1-2.5h-6.4l-1.1,2.5
		c-0.199,0.5-0.6,0.699-1.1,0.699c-0.6,0-1.1-0.5-1.1-1.1C571.082,331.698,571.082,331.498,571.181,331.298z M579.781,327.598
		l-2.301-5.3l-2.299,5.3H579.781z"/>
</g>
<g>
	<path fill="#D9426A" d="M87.497,331.098l5.6-12.5c0.3-0.7,0.8-1.1,1.6-1.1h0.1c0.8,0,1.3,0.399,1.6,1.1l5.6,12.5
		c0.1,0.199,0.2,0.399,0.2,0.6c0,0.7-0.5,1.3-1.2,1.3c-0.6,0-1.1-0.399-1.3-0.899l-1.2-2.8h-7.3l-1.3,2.899
		c-0.2,0.5-0.7,0.8-1.2,0.8c-0.7,0-1.2-0.5-1.2-1.2C87.397,331.498,87.397,331.298,87.497,331.098z M97.397,326.799l-2.6-6.101
		l-2.7,6.101H97.397z"/>
	<path fill="#D9426A" d="M104.997,319.098c0-0.8,0.6-1.3,1.3-1.3h5.4c1.9,0,3.4,0.6,4.4,1.5c0.8,0.8,1.2,1.899,1.2,3.3l0,0
		c0,2.4-1.4,3.899-3.4,4.5l2.9,3.6c0.3,0.3,0.4,0.6,0.4,1c0,0.7-0.6,1.2-1.3,1.2c-0.6,0-1-0.3-1.3-0.7l-3.7-4.7h-3.3v4
		c0,0.7-0.6,1.3-1.3,1.3c-0.8,0-1.3-0.6-1.3-1.3V319.098z M111.596,325.198c1.9,0,3.1-1,3.1-2.5l0,0c0-1.6-1.2-2.5-3.1-2.5h-3.9
		v5.101h3.9V325.198z"/>
	<path fill="#D9426A" d="M120.796,318.898c0-0.699,0.6-1.3,1.3-1.3c0.7,0,1.3,0.601,1.3,1.3v12.7c0,0.699-0.6,1.3-1.3,1.3
		c-0.8,0-1.3-0.601-1.3-1.3V318.898z"/>
	<path fill="#D9426A" d="M126.796,325.299L126.796,325.299c0-4.3,3.2-7.8,7.8-7.8c2.3,0,3.8,0.5,5.1,1.5c0.3,0.2,0.5,0.6,0.5,1.1
		c0,0.7-0.6,1.3-1.3,1.3c-0.3,0-0.6-0.2-0.8-0.3c-1-0.7-2-1.2-3.7-1.2c-2.8,0-4.9,2.4-4.9,5.3l0,0c0,3.101,2,5.4,5.1,5.4
		c1.4,0,2.7-0.5,3.6-1.101v-2.8h-3c-0.6,0-1.2-0.5-1.2-1.1c0-0.601,0.5-1.2,1.2-1.2h4.2c0.8,0,1.3,0.6,1.3,1.3v4
		c0,0.8-0.3,1.3-0.9,1.7c-1.3,0.899-3.1,1.6-5.4,1.6C129.896,333.098,126.796,329.698,126.796,325.299z"/>
	<path fill="#D9426A" d="M143.495,331.098l5.6-12.5c0.3-0.7,0.8-1.1,1.6-1.1h0.1c0.8,0,1.3,0.399,1.6,1.1l5.6,12.5
		c0.1,0.199,0.2,0.399,0.2,0.6c0,0.7-0.5,1.3-1.2,1.3c-0.6,0-1.1-0.399-1.3-0.899l-1.2-2.8h-7.5l-1.3,2.899
		c-0.2,0.5-0.7,0.8-1.2,0.8c-0.7,0-1.2-0.5-1.2-1.2C143.295,331.498,143.395,331.298,143.495,331.098z M153.295,326.799l-2.6-6.101
		l-2.7,6.101H153.295z"/>
	<path fill="#D9426A" d="M162.995,320.198h-3.7c-0.7,0-1.2-0.6-1.2-1.199c0-0.7,0.5-1.2,1.2-1.2h10c0.7,0,1.2,0.6,1.2,1.2
		c0,0.7-0.5,1.199-1.2,1.199h-3.7v11.4c0,0.699-0.6,1.3-1.3,1.3c-0.7,0-1.3-0.601-1.3-1.3V320.198z"/>
	<path fill="#D9426A" d="M171.694,325.299L171.694,325.299c0-4.3,3.3-7.8,7.9-7.8c4.6,0,7.899,3.5,7.899,7.8l0,0
		c0,4.199-3.3,7.8-7.899,7.8C174.994,333.098,171.694,329.598,171.694,325.299z M184.694,325.299L184.694,325.299
		c0-3-2.1-5.4-5.1-5.4c-3,0-5.1,2.4-5.1,5.3l0,0c0,2.9,2.1,5.3,5.1,5.3C182.594,330.598,184.694,328.198,184.694,325.299z"/>
</g>
<g>
	<path fill="#D9426A" d="M345.888,298.3c0-0.4,0.301-0.801,0.801-0.801h2.5c2.699,0,4.6,1.9,4.6,4.3l0,0c0,2.4-1.9,4.4-4.6,4.4h-2.5
		c-0.4,0-0.801-0.3-0.801-0.8V298.3z M349.189,304.899c1.799,0,3-1.2,3-2.9l0,0c0-1.699-1.201-3-3-3h-1.701v5.9H349.189z"/>
	<path fill="#D9426A" d="M355.689,305.499V298.3c0-0.4,0.299-0.801,0.799-0.801h5.1c0.4,0,0.701,0.301,0.701,0.7
		c0,0.4-0.301,0.7-0.701,0.7h-4.299v2.3h3.699c0.4,0,0.701,0.3,0.701,0.7s-0.301,0.7-0.701,0.7h-3.699v2.3h4.4
		c0.398,0,0.699,0.3,0.699,0.7c0,0.399-0.301,0.699-0.699,0.699h-5.102C355.988,306.299,355.689,305.899,355.689,305.499z"/>
	<path fill="#D9426A" d="M363.988,298.3c0-0.4,0.301-0.801,0.801-0.801c0.398,0,0.799,0.301,0.799,0.801v3.699l4.1-4.199
		c0.201-0.2,0.4-0.301,0.602-0.301c0.398,0,0.699,0.301,0.699,0.7c0,0.2-0.1,0.4-0.301,0.601l-2.699,2.6l2.9,3.6
		c0.1,0.2,0.199,0.3,0.199,0.5c0,0.4-0.299,0.7-0.799,0.7c-0.301,0-0.5-0.1-0.602-0.4l-2.799-3.6l-1.4,1.4v1.8
		c0,0.399-0.301,0.8-0.801,0.8c-0.398,0-0.799-0.3-0.799-0.8v-7.1H363.988z"/>
	<path fill="#D9426A" d="M372.587,302.599v-4.3c0-0.4,0.301-0.801,0.801-0.801c0.4,0,0.799,0.301,0.799,0.801v4.3
		c0,1.6,0.801,2.5,2.201,2.5c1.398,0,2.199-0.801,2.199-2.4v-4.3c0-0.4,0.301-0.8,0.801-0.8c0.398,0,0.799,0.3,0.799,0.8v4.2
		c0,2.6-1.5,3.899-3.699,3.899C374.087,306.399,372.587,305.099,372.587,302.599z"/>
	<path fill="#D9426A" d="M381.488,305.399c-0.1-0.101-0.301-0.3-0.301-0.601c0-0.399,0.301-0.699,0.701-0.699
		c0.199,0,0.299,0.1,0.5,0.199c0.398,0.4,0.799,0.7,1.398,0.7c0.801,0,1.4-0.5,1.4-1.7V298.3c0-0.4,0.301-0.801,0.801-0.801
		s0.799,0.301,0.799,0.801v4.999c0,1-0.299,1.801-0.799,2.301s-1.201,0.8-2.1,0.8C382.787,306.399,381.988,305.999,381.488,305.399z
		"/>
	<path fill="#D9426A" d="M388.988,298.3c0-0.4,0.299-0.801,0.799-0.801c0.4,0,0.801,0.301,0.801,0.801v7.3
		c0,0.399-0.301,0.8-0.801,0.8c-0.4,0-0.799-0.3-0.799-0.8V298.3z"/>
</g>
<g>
	<path fill="#D9426A" d="M346.689,331.398c-0.301-0.2-0.4-0.5-0.4-0.9c0-0.6,0.5-1,1.1-1c0.301,0,0.5,0.101,0.701,0.2
		c1.1,0.8,2.199,1.3,3.6,1.3c1.398,0,2.299-0.7,2.299-1.6l0,0c0-0.9-0.5-1.4-2.898-2c-2.701-0.7-4.301-1.5-4.301-3.8l0,0
		c0-2.2,1.801-3.7,4.4-3.7c1.6,0,2.898,0.4,4.1,1.2c0.299,0.1,0.5,0.5,0.5,0.9c0,0.6-0.5,1-1.1,1c-0.201,0-0.4-0.101-0.602-0.2
		c-1-0.601-1.898-1-2.898-1c-1.301,0-2.1,0.7-2.1,1.5l0,0c0,1,0.6,1.399,3.1,2c2.699,0.699,4.1,1.6,4.1,3.8l0,0
		c0,2.399-1.9,3.8-4.6,3.8C349.789,332.998,348.089,332.498,346.689,331.398z"/>
	<path fill="#D9426A" d="M358.789,321.098c0-0.6,0.5-1.1,1.1-1.1h3.9c3,0,4.898,1.699,4.898,4.3l0,0c0,2.899-2.299,4.399-5.1,4.399
		h-2.6v3.1c0,0.601-0.5,1.101-1.1,1.101s-1.1-0.5-1.1-1.101V321.098z M363.587,326.698c1.701,0,2.801-1,2.801-2.3l0,0
		c0-1.5-1.1-2.3-2.801-2.3h-2.6v4.6H363.587z"/>
	<path fill="#D9426A" d="M369.187,331.398l4.801-10.6c0.301-0.601,0.699-0.9,1.4-0.9h0.1c0.6,0,1.1,0.3,1.299,0.9l4.801,10.6
		c0.1,0.2,0.1,0.3,0.1,0.5c0,0.6-0.5,1.1-1.1,1.1c-0.5,0-0.9-0.3-1.1-0.8l-1-2.399h-6.199l-1.102,2.499c-0.199,0.5-0.6,0.7-1,0.7
		c-0.6,0-1-0.5-1-1C369.087,331.698,369.087,331.598,369.187,331.398z M377.587,327.698l-2.301-5.199l-2.299,5.199H377.587z"/>
	<path fill="#D9426A" d="M383.687,331.398c-0.299-0.2-0.4-0.5-0.4-0.9c0-0.6,0.5-1,1.102-1c0.299,0,0.5,0.101,0.699,0.2
		c1.1,0.8,2.199,1.3,3.6,1.3s2.301-0.7,2.301-1.6l0,0c0-0.9-0.5-1.4-2.9-2c-2.699-0.7-4.301-1.5-4.301-3.8l0,0
		c0-2.2,1.801-3.7,4.4-3.7c1.6,0,2.9,0.4,4.1,1.2c0.301,0.1,0.5,0.5,0.5,0.9c0,0.6-0.5,1-1.1,1c-0.199,0-0.4-0.101-0.6-0.2
		c-1-0.601-1.9-1-2.9-1c-1.299,0-2.1,0.7-2.1,1.5l0,0c0,1,0.6,1.399,3.1,2c2.699,0.699,4.1,1.6,4.1,3.8l0,0c0,2.399-1.9,3.8-4.6,3.8
		C386.687,332.998,385.087,332.498,383.687,331.398z"/>
	<path fill="#D9426A" d="M395.787,320.999c0-0.601,0.5-1.101,1.1-1.101c0.602,0,1.102,0.5,1.102,1.101v10.799
		c0,0.601-0.5,1.101-1.102,1.101c-0.6,0-1.1-0.5-1.1-1.101V320.999z"/>
	<path fill="#D9426A" d="M401.486,321.098c0-0.6,0.5-1.1,1.102-1.1h4.6c1.5,0,2.6,0.399,3.398,1.1c0.602,0.6,0.9,1.3,0.9,2.1l0,0
		c0,1.5-0.9,2.4-1.799,2.9c1.5,0.5,2.5,1.399,2.5,3.1l0,0c0,2.3-1.9,3.5-4.701,3.5h-4.799c-0.6,0-1.1-0.5-1.1-1.1v-10.5H401.486z
		 M406.787,325.398c1.4,0,2.4-0.6,2.4-1.7l0,0c0-1-0.801-1.6-2.301-1.6h-3.199v3.399h3.1V325.398z M407.486,330.798
		c1.5,0,2.5-0.6,2.5-1.8l0,0c0-1.1-0.898-1.699-2.6-1.699h-3.6v3.499H407.486z"/>
	<path fill="#D9426A" d="M414.187,326.498L414.187,326.498c0-3.6,2.799-6.699,6.699-6.699s6.699,3,6.699,6.6l0,0
		c0,3.6-2.799,6.6-6.699,6.6S414.187,330.098,414.187,326.498z M425.185,326.498L425.185,326.498c0-2.499-1.799-4.6-4.398-4.6
		c-2.5,0-4.301,2-4.301,4.5l0,0c0,2.5,1.801,4.5,4.4,4.5C423.386,330.998,425.185,328.998,425.185,326.498z"/>
</g>
<g>
	<path fill="#D9426A" d="M419.687,276.6l3.398-7.7c0.201-0.4,0.5-0.7,1-0.7h0.1c0.5,0,0.801,0.3,1,0.7l3.4,7.7
		c0.1,0.1,0.1,0.199,0.1,0.3c0,0.399-0.299,0.8-0.799,0.8c-0.4,0-0.6-0.2-0.801-0.6l-0.799-1.7h-4.5l-0.801,1.8
		c-0.1,0.3-0.4,0.5-0.799,0.5c-0.4,0-0.801-0.3-0.801-0.8C419.585,276.8,419.687,276.7,419.687,276.6z M425.787,274l-1.602-3.699
		l-1.6,3.699H425.787z"/>
	<path fill="#D9426A" d="M430.386,269.1c0-0.4,0.4-0.8,0.799-0.8c0.4,0,0.801,0.399,0.801,0.8v3.1h4.4v-3.1
		c0-0.4,0.398-0.8,0.799-0.8c0.5,0,0.801,0.399,0.801,0.8v7.8c0,0.399-0.4,0.8-0.801,0.8s-0.799-0.4-0.799-0.8v-3.2h-4.4v3.2
		c0,0.399-0.4,0.8-0.801,0.8c-0.5,0-0.799-0.4-0.799-0.8V269.1z"/>
	<path fill="#D9426A" d="M440.185,276.6c-0.199-0.101-0.299-0.4-0.299-0.601c0-0.399,0.299-0.8,0.799-0.8c0.201,0,0.4,0.1,0.5,0.1
		c0.801,0.601,1.6,1,2.6,1s1.602-0.5,1.602-1.199l0,0c0-0.7-0.4-1-2.102-1.4c-2-0.5-3.1-1.1-3.1-2.8l0,0c0-1.6,1.301-2.7,3.201-2.7
		c1.199,0,2.1,0.3,2.898,0.9c0.201,0.1,0.4,0.3,0.4,0.6c0,0.4-0.301,0.8-0.799,0.8c-0.201,0-0.301,0-0.4-0.1
		c-0.701-0.5-1.4-0.7-2.1-0.7c-1,0-1.5,0.5-1.5,1.101l0,0c0,0.699,0.398,1,2.199,1.499c2,0.5,3,1.2,3,2.7l0,0
		c0,1.7-1.4,2.8-3.301,2.8C442.486,277.8,441.285,277.4,440.185,276.6z"/>
	<path fill="#D9426A" d="M448.285,276.6l3.4-7.7c0.199-0.4,0.5-0.7,1-0.7h0.1c0.5,0,0.801,0.3,1,0.7l3.4,7.7
		c0.1,0.1,0.1,0.199,0.1,0.3c0,0.399-0.299,0.8-0.799,0.8c-0.4,0-0.602-0.2-0.801-0.6l-0.801-1.7h-4.5l-0.799,1.8
		c-0.1,0.3-0.4,0.5-0.801,0.5s-0.799-0.3-0.799-0.8C448.185,276.8,448.185,276.7,448.285,276.6z M454.285,274l-1.6-3.699l-1.6,3.699
		H454.285z"/>
	<path fill="#D9426A" d="M458.984,269.2c0-0.399,0.4-0.8,0.801-0.8h0.199c0.4,0,0.602,0.2,0.801,0.5l4.6,6v-5.7
		c0-0.399,0.4-0.8,0.801-0.8s0.799,0.4,0.799,0.8v7.8c0,0.4-0.299,0.8-0.799,0.8h-0.1c-0.4,0-0.602-0.199-0.801-0.5l-4.801-6.199
		V277c0,0.4-0.398,0.8-0.799,0.8s-0.801-0.399-0.801-0.8v-7.8H458.984z"/>
	<path fill="#D9426A" d="M471.685,269.9h-2.201c-0.398,0-0.799-0.3-0.799-0.8s0.299-0.8,0.799-0.8h6.1c0.4,0,0.701,0.3,0.701,0.8
		s-0.301,0.8-0.701,0.8h-2.299v7c0,0.399-0.4,0.8-0.801,0.8s-0.799-0.4-0.799-0.8V269.9L471.685,269.9z"/>
	<path fill="#D9426A" d="M477.984,276.8v-7.6c0-0.5,0.4-0.8,0.801-0.8h5.398c0.4,0,0.701,0.3,0.701,0.7c0,0.399-0.301,0.7-0.701,0.7
		h-4.6v2.399h4c0.4,0,0.701,0.3,0.701,0.7c0,0.399-0.301,0.7-0.701,0.7h-4v2.5h4.6c0.4,0,0.701,0.3,0.701,0.699
		c0,0.4-0.301,0.7-0.701,0.7h-5.398C478.285,277.6,477.984,277.3,477.984,276.8z"/>
</g>
</svg>
