<?xml version="1.0" encoding="utf-8"?>
<!-- Generator: Adobe Illustrator 16.2.1, SVG Export Plug-In . SVG Version: 6.00 Build 0)  -->
<!DOCTYPE svg PUBLIC "-//W3C//DTD SVG 1.1//EN" "http://www.w3.org/Graphics/SVG/1.1/DTD/svg11.dtd">
<svg version="1.1" id="sdfgsdg" xmlns="http://www.w3.org/2000/svg" xmlns:xlink="http://www.w3.org/1999/xlink" x="0px" y="0px"
	 width="100px" height="100px" viewBox="0 0 100 100" enable-background="new 0 0 100 100" xml:space="preserve">
<g>
	<path fill="#d9426a" d="M51.396,43.386c0-0.782-0.634-1.416-1.416-1.416s-1.416,0.634-1.416,1.416l0.006,0.043c0,0.782,0.633,1.416,1.416,1.416
		c0.781,0,1.416-0.634,1.416-1.416L51.396,43.386z"/>
	<path fill="#d9426a" d="M50,35.5c-8.008,0-14.5,6.492-14.5,14.5c0,2.523,0.648,4.894,1.782,6.96c0.158,0.551,0.659,0.956,1.261,0.956
		c0.729,0,1.318-0.59,1.318-1.318l-0.012-0.122c0-0.553-0.341-1.024-0.822-1.22l0.213-0.214c-0.725-1.537-1.143-3.249-1.143-5.062
		c0-6.562,5.32-11.883,11.883-11.883s11.883,5.32,11.883,11.883s-5.32,11.884-11.883,11.884c-2.614,0-5.021-0.856-6.984-2.286
		c-0.24-0.26-0.582-0.426-0.964-0.426c-0.728,0-1.317,0.59-1.317,1.318l0.012,0.123c0,0.605,0.411,1.111,0.969,1.265
		C44.049,63.513,46.904,64.5,50,64.5c8.008,0,14.5-6.492,14.5-14.5S58.008,35.5,50,35.5z"/>
	<path fill="#d9426a" d="M49.98,47.252c-0.729,0-1.318,0.591-1.318,1.318l0.006,8.03c0,0.728,0.59,1.318,1.318,1.318
		c0.727,0,1.317-0.591,1.317-1.318l-0.005-8.03C51.299,47.843,50.709,47.252,49.98,47.252z"/>
</g>
</svg>
