<?xml version="1.0" encoding="utf-8"?>
<!-- Generator: Adobe Illustrator 16.2.1, SVG Export Plug-In . SVG Version: 6.00 Build 0)  -->
<!DOCTYPE svg PUBLIC "-//W3C//DTD SVG 1.1//EN" "http://www.w3.org/Graphics/SVG/1.1/DTD/svg11.dtd">
<svg version="1.1" id="svg-special" xmlns="http://www.w3.org/2000/svg" xmlns:xlink="http://www.w3.org/1999/xlink" x="0px" y="0px"
	 width="100px" height="100px" viewBox="0 0 100 100" enable-background="new 0 0 100 100" xml:space="preserve">
<g>
	<path d="M59.03,49.615c2.266,0,4.396-0.889,6.037-2.543l9.908-11.97c0.363-0.523,0.502-1.339-0.05-1.89
		c-0.233-0.234-0.522-0.357-0.838-0.357c-0.526,0-0.925,0.344-1.051,0.468l-9.912,11.964c-1.572,1.554-3.861,2.115-6.023,1.393
		l-0.847-0.25l-2.902,3.334l-3.257-2.872l3.634-3.202l-0.346-0.762c-0.704-2.127-0.171-4.443,1.347-6.006l11.949-9.998l0.114-0.127
		c0.202-0.312,0.418-1.01-0.062-1.647c-0.22-0.296-0.546-0.458-0.917-0.458c-0.451,0-0.83,0.236-0.953,0.322l-11.911,9.961
		c-2.078,2.092-2.919,5.022-2.284,7.902l-2.564,2.26l-2.223-1.961c-0.623-0.777-10.151-12.655-13.611-16.473
		c-0.792-0.873-1.895-1.354-3.105-1.354c-1.193,0-2.361,0.486-3.206,1.334c-1.208,1.215-1.569,3.027-0.965,4.851
		c0.062,0.187,0.137,0.431,0.227,0.724c0.703,2.283,2.35,7.633,5.728,11.727c3.065,3.707,6.752,5.181,8.355,5.676l1.593,1.827
		L28.047,62.813c-2.56,2.575-2.56,6.765,0.001,9.34c1.24,1.245,2.891,1.933,4.647,1.933c1.758,0,3.408-0.688,4.674-1.962
		l10.759-12.341l10.995,12.605c1.24,1.248,2.893,1.936,4.649,1.936c1.758,0,3.409-0.688,4.648-1.934
		c2.561-2.575,2.561-6.765-0.027-9.365L55.337,51.514l1.833-2.104C57.782,49.547,58.407,49.615,59.03,49.615z M66.568,64.922
		c1.527,1.55,1.523,4.064-0.01,5.605c-0.743,0.747-1.732,1.158-2.787,1.158c-1.049,0-2.034-0.407-2.75-1.118L40.835,47.404
		l-0.163-0.047c-0.048-0.014-4.858-1.443-7.69-5.045c-3.525-4.479-5.566-11.795-5.595-11.894c-0.218-0.668-0.053-1.386,0.431-1.872
		c0.343-0.345,0.799-0.535,1.285-0.535c0.481,0,0.935,0.188,1.238,0.484l13.683,16.553L66.568,64.922z M46.376,57.773L35.472,70.3
		c-0.742,0.741-1.728,1.148-2.776,1.148c-1.054,0-2.045-0.411-2.788-1.159c-1.533-1.542-1.538-4.055-0.038-5.575l12.757-11.241
		L46.376,57.773z"/>
	<path d="M59.945,36.622c0.256,0.274,0.603,0.413,0.949,0.413c0.317,0,0.634-0.115,0.884-0.348l7.509-6.989
		c0.524-0.488,0.553-1.308,0.065-1.833c-0.487-0.524-1.31-0.553-1.833-0.065l-7.508,6.989
		C59.487,35.277,59.457,36.098,59.945,36.622z"/>
	<path d="M63.106,39.859c0.252,0.252,0.583,0.378,0.913,0.378c0.333,0,0.666-0.128,0.92-0.383l7.265-7.31
		c0.505-0.509,0.502-1.33-0.006-1.834c-0.507-0.505-1.327-0.503-1.834,0.005L63.1,38.027C62.595,38.535,62.598,39.355,63.106,39.859
		z"/>
</g>
</svg>
