<?xml version="1.0" encoding="utf-8"?>
<!-- Generator: Adobe Illustrator 16.2.1, SVG Export Plug-In . SVG Version: 6.00 Build 0)  -->
<!DOCTYPE svg PUBLIC "-//W3C//DTD SVG 1.1//EN" "http://www.w3.org/Graphics/SVG/1.1/DTD/svg11.dtd">
<svg version="1.1" id="Ebene_1" xmlns="http://www.w3.org/2000/svg" xmlns:xlink="http://www.w3.org/1999/xlink" x="0px" y="0px"
	 width="100px" height="100px" viewBox="0 0 100 100" enable-background="new 0 0 100 100" xml:space="preserve">
<g>
	<path  fill="#AAAAAA" id="data" d="M66.879,67.522c0,0.948-0.756,1.715-1.691,1.715c-0.934,0-1.693-0.767-1.693-1.715l-0.002-0.02h-0.045
		c-0.803-6.648-6.285-11.822-13.01-12.036c-0.147,0.006-0.288,0.022-0.436,0.022c-0.145,0-0.288-0.017-0.432-0.022
		c-6.725,0.216-12.207,5.388-13.01,12.036H36.52l0.002,0.02c0,0.948-0.758,1.715-1.693,1.715s-1.691-0.767-1.691-1.715l-0.016-0.16
		c0-0.223,0.045-0.437,0.122-0.632c0.85-6.008,4.747-11.016,10.069-13.336c-3.127-2.167-5.181-5.809-5.181-9.937
		c0-6.644,5.316-12.029,11.87-12.029c6.557,0,11.871,5.386,11.871,12.029c0,4.126-2.055,7.766-5.178,9.933
		c5.373,2.342,9.295,7.421,10.098,13.503c0.041,0.15,0.072,0.306,0.072,0.469L66.879,67.522z M58.478,43.463
		c0-4.745-3.796-8.595-8.478-8.595c-4.683,0-8.479,3.85-8.479,8.595s3.796,8.592,8.479,8.592
		C54.682,52.055,58.478,48.208,58.478,43.463z"/>
</g>
</svg>
