<?xml version="1.0" encoding="utf-8"?>
<!-- Generator: Adobe Illustrator 18.1.1, SVG Export Plug-In . SVG Version: 6.00 Build 0)  -->
<svg version="1.1" id="Ebene_1" xmlns="http://www.w3.org/2000/svg" xmlns:xlink="http://www.w3.org/1999/xlink" x="0px" y="0px"
	 viewBox="-658 659.3 100 100" enable-background="new -658 659.3 100 100" xml:space="preserve">
<g>
	<path fill="#FFFFFF" d="M-617.5,705.3c-0.3,0-0.7-0.1-1-0.2c-1.3-0.5-1.8-2-1.3-3.3l9.6-20.7c0.4-0.9,1.3-1.5,2.3-1.5l0,0
		c1,0,1.9,0.6,2.3,1.5l9.6,20.7c0.5,1.3,0,2.7-1.3,3.3c-1.3,0.6-2.7,0-3.3-1.3l-7.3-15.4l-7.3,15.4
		C-615.6,704.7-616.5,705.3-617.5,705.3z"/>
	<path fill="#FFFFFF" d="M-595.9,739.2c-7.1,0-13.1-5-14.4-11.9l-1.1-4.6c-0.9-4.7-4.9-8-9.6-8c-5.4,0-9.7,4.4-9.7,9.7
		c0,5.4,4.4,9.7,9.7,9.7c1.4,0,2.8-0.3,4-0.9c1.3-0.6,2.7,0,3.3,1.2c0.6,1.3,0,2.7-1.2,3.3c-1.9,0.9-4,1.3-6.1,1.3
		c-8.1,0-14.7-6.6-14.7-14.7c0-8.1,6.6-14.7,14.7-14.7c7.1,0,13.1,5,14.4,12l1.1,4.6c0.9,4.7,4.9,8,9.6,8c5.4,0,9.7-4.4,9.7-9.7
		s-4.4-9.7-9.7-9.7c-1.4,0-2.8,0.3-4,0.9c-1.3,0.6-2.7,0-3.3-1.2c-0.6-1.3,0-2.7,1.2-3.3c1.9-0.9,4-1.3,6.1-1.3
		c8.1,0,14.7,6.6,14.7,14.7S-587.8,739.2-595.9,739.2z"/>
</g>
</svg>
