<?xml version="1.0" encoding="utf-8"?>
<!-- Generator: Adobe Illustrator 16.2.1, SVG Export Plug-In . SVG Version: 6.00 Build 0)  -->
<!DOCTYPE svg PUBLIC "-//W3C//DTD SVG 1.1//EN" "http://www.w3.org/Graphics/SVG/1.1/DTD/svg11.dtd">
<svg version="1.1" id="Ebene_1" xmlns="http://www.w3.org/2000/svg" xmlns:xlink="http://www.w3.org/1999/xlink" x="0px" y="0px"
	 width="100px" height="100px" viewBox="0 0 100 100" enable-background="new 0 0 100 100" xml:space="preserve">
<g>
	<path d="M51.484,59.167v-9.501h2.662l0.354-3.274h-3.016l0.005-1.639c0-0.854,0.082-1.312,1.327-1.312h1.664v-3.274h-2.662
		c-3.199,0-4.324,1.589-4.324,4.26v1.966H45.5v3.273h1.994v9.501H51.484z"/>
	<path d="M50,70.167c-4.629,0-9.164-1.586-12.771-4.466c-0.587-0.468-0.683-1.322-0.215-1.908s1.322-0.683,1.908-0.214
		c3.174,2.533,7.005,3.873,11.078,3.873c9.807,0,17.785-7.979,17.785-17.786c0-9.806-7.979-17.784-17.785-17.784
		S32.215,39.86,32.215,49.666c0,3.38,0.95,6.666,2.749,9.504c0.402,0.633,0.214,1.473-0.42,1.874c-0.633,0.4-1.473,0.213-1.874-0.42
		c-2.073-3.274-3.17-7.062-3.17-10.958c0-11.303,9.195-20.499,20.5-20.499c11.304,0,20.5,9.196,20.5,20.499
		C70.5,60.971,61.304,70.167,50,70.167z"/>
</g>
</svg>
