<?xml version="1.0" encoding="utf-8"?>
<!-- Generator: Adobe Illustrator 16.2.1, SVG Export Plug-In . SVG Version: 6.00 Build 0)  -->
<!DOCTYPE svg PUBLIC "-//W3C//DTD SVG 1.1//EN" "http://www.w3.org/Graphics/SVG/1.1/DTD/svg11.dtd">
<svg version="1.1" id="isvg-classic" xmlns="http://www.w3.org/2000/svg" xmlns:xlink="http://www.w3.org/1999/xlink" x="0px" y="0px"
	 width="100px" height="100px" viewBox="0 0 100 100" enable-background="new 0 0 100 100" xml:space="preserve">
<g>
	<path fill="#d593a4" d="M74.432,44.223c-0.005,0-0.013,0-0.02,0H25.569c-0.67,0-1.259-0.444-1.442-1.089c-0.184-0.644,0.081-1.331,0.65-1.686
		l24.422-15.186c0.484-0.302,1.1-0.302,1.584,0l24.283,15.099c0.512,0.239,0.866,0.759,0.866,1.361
		C75.932,43.551,75.261,44.223,74.432,44.223z M30.822,41.223h38.337l-19.168-11.92L30.822,41.223z"/>
	<path fill="#d593a4" d="M32.12,68.297c-0.828,0-1.5-0.672-1.5-1.5V48.389c0-0.828,0.672-1.5,1.5-1.5s1.5,0.672,1.5,1.5v18.408
		C33.62,67.625,32.948,68.297,32.12,68.297z"/>
	<path fill="#d593a4" d="M44.034,68.297c-0.828,0-1.5-0.672-1.5-1.5V48.389c0-0.828,0.672-1.5,1.5-1.5s1.5,0.672,1.5,1.5v18.408
		C45.534,67.625,44.862,68.297,44.034,68.297z"/>
	<path fill="#d593a4" d="M55.948,68.297c-0.828,0-1.5-0.672-1.5-1.5V48.389c0-0.828,0.672-1.5,1.5-1.5s1.5,0.672,1.5,1.5v18.408
		C57.448,67.625,56.776,68.297,55.948,68.297z"/>
	<path fill="#d593a4" d="M67.86,68.297c-0.828,0-1.5-0.672-1.5-1.5V48.389c0-0.828,0.672-1.5,1.5-1.5s1.5,0.672,1.5,1.5v18.408
		C69.36,67.625,68.688,68.297,67.86,68.297z"/>
	<path fill="#d593a4" d="M74.39,73.964H25.591c-0.828,0-1.5-0.671-1.5-1.5s0.672-1.5,1.5-1.5H74.39c0.828,0,1.5,0.671,1.5,1.5
		S75.218,73.964,74.39,73.964z"/>
</g>
</svg>
