<?xml version="1.0" encoding="utf-8"?>
<!-- Generator: Adobe Illustrator 18.1.1, SVG Export Plug-In . SVG Version: 6.00 Build 0)  -->
<svg version="1.1" id="Ebene_1" xmlns="http://www.w3.org/2000/svg" xmlns:xlink="http://www.w3.org/1999/xlink" x="0px" y="0px"
	 viewBox="-658 659.3 100 100" enable-background="new -658 659.3 100 100" xml:space="preserve">
<path fill="#AAAAAA" d="M-602.2,731.2c-0.8,0-1.5-0.7-1.5-1.5v-12.5c0-0.3-1.5-1.4-4-1.4h-0.7c-2.5,0-4,1-4,1.4v12.5
	c0,0.8-0.7,1.5-1.5,1.5h-22c-0.4,0-0.9-0.2-1.1-0.5c-0.3-0.3-0.4-0.8-0.3-1.2l4.7-25.6c0,0,0,0,0,0V689c0-0.8,0.7-1.5,1.5-1.5h10
	c0.8,0,1.5,0.7,1.5,1.5v5.9h5V689c0-0.8,0.7-1.5,1.5-1.5h10.3c0.8,0,1.5,0.7,1.5,1.5v5.9h5V689c0-0.8,0.7-1.5,1.5-1.5h10
	c0.8,0,1.5,0.7,1.5,1.5v14.6l4.8,25.9c0.1,0.4,0,0.9-0.3,1.2c-0.3,0.3-0.7,0.5-1.1,0.5h-21.9C-602.1,731.2-602.1,731.2-602.2,731.2z
	 M-600.7,728.2h18.8l-4.4-24c-0.1-0.2-0.1-0.3-0.1-0.5v-13.3h-7v5.9c0,0.8-0.7,1.5-1.5,1.5h-8c-0.8,0-1.5-0.7-1.5-1.5v-5.9h-7.3v5.9
	c0,0.8-0.7,1.5-1.5,1.5h-8c-0.8,0-1.5-0.7-1.5-1.5v-5.9h-7.1v13.1c0,0.2,0,0.4,0,0.5l-4.4,24.2h18.8v-11c0-2.5,3-4.3,7-4.3h0.7
	c4,0,7,1.9,7,4.3C-600.7,717.2-600.7,728.2-600.7,728.2z"/>
</svg>
