<?xml version="1.0" encoding="utf-8"?>
<!-- Generator: Adobe Illustrator 16.2.1, SVG Export Plug-In . SVG Version: 6.00 Build 0)  -->
<!DOCTYPE svg PUBLIC "-//W3C//DTD SVG 1.1//EN" "http://www.w3.org/Graphics/SVG/1.1/DTD/svg11.dtd">
<svg version="1.1" id="Ebene_1" xmlns="http://www.w3.org/2000/svg" xmlns:xlink="http://www.w3.org/1999/xlink" x="0px" y="0px"
	 width="100px" height="100px" viewBox="0 0 100 100" enable-background="new 0 0 100 100" xml:space="preserve">
<path d="M54.88,41.166H44.451c-1.812,0-3.285,1.474-3.285,3.285v3.471v6.959c0,1.812,1.474,3.285,3.285,3.285h10.43
	c1.812,0,3.285-1.473,3.285-3.285v-6.959v-3.471C58.165,42.64,56.691,41.166,54.88,41.166z M55.822,43.125l0.376-0.001v0.374v2.508
	l-2.872,0.009l-0.01-2.881L55.822,43.125z M47.239,47.922c0.545-0.754,1.428-1.248,2.427-1.248c0.998,0,1.882,0.494,2.426,1.248
	c0.354,0.491,0.566,1.093,0.566,1.744c0,1.65-1.344,2.992-2.993,2.992s-2.992-1.342-2.992-2.992
	C46.674,49.015,46.885,48.413,47.239,47.922z M56.509,54.881c0,0.898-0.73,1.629-1.629,1.629H44.451
	c-0.898,0-1.629-0.73-1.629-1.629v-6.959h2.537c-0.219,0.539-0.342,1.127-0.342,1.744c0,2.562,2.085,4.648,4.648,4.648
	c2.562,0,4.647-2.086,4.647-4.648c0-0.617-0.123-1.205-0.343-1.744h2.538V54.881z"/>
<path d="M49.666,70.166c-4.629,0-9.164-1.586-12.771-4.466c-0.587-0.468-0.683-1.322-0.215-1.908s1.322-0.683,1.908-0.214
	c3.174,2.533,7.005,3.873,11.078,3.873c9.806,0,17.784-7.979,17.784-17.786c0-9.806-7.979-17.784-17.784-17.784
	c-9.807,0-17.785,7.979-17.785,17.784c0,3.38,0.95,6.666,2.749,9.504c0.402,0.633,0.214,1.473-0.42,1.874
	c-0.633,0.4-1.473,0.213-1.874-0.42c-2.073-3.274-3.17-7.062-3.17-10.958c0-11.303,9.195-20.499,20.5-20.499
	c11.304,0,20.5,9.196,20.5,20.499C70.166,60.97,60.97,70.166,49.666,70.166z"/>
</svg>
