<?xml version="1.0" encoding="utf-8"?>
<!-- Generator: Adobe Illustrator 18.1.1, SVG Export Plug-In . SVG Version: 6.00 Build 0)  -->
<svg version="1.1" id="Ebene_1" xmlns="http://www.w3.org/2000/svg" xmlns:xlink="http://www.w3.org/1999/xlink" x="0px" y="0px"
	 viewBox="-658 659.3 100 100" enable-background="new -658 659.3 100 100" xml:space="preserve">
<path fill="#FFFFFF" d="M-603.1,700.5h-10.4c-1.8,0-3.3,1.5-3.3,3.3v3.5v7c0,1.8,1.5,3.3,3.3,3.3h10.4c1.8,0,3.3-1.5,3.3-3.3v-7
	v-3.5C-599.8,702-601.3,700.5-603.1,700.5z M-602.2,702.4l0.4,0v0.4v2.5l-2.9,0l0-2.9L-602.2,702.4z M-610.8,707.2
	c0.5-0.8,1.4-1.2,2.4-1.2c1,0,1.9,0.5,2.4,1.2c0.4,0.5,0.6,1.1,0.6,1.7c0,1.6-1.3,3-3,3s-3-1.3-3-3
	C-611.3,708.3-611.1,707.7-610.8,707.2z M-601.5,714.2c0,0.9-0.7,1.6-1.6,1.6h-10.4c-0.9,0-1.6-0.7-1.6-1.6v-7h2.5
	c-0.2,0.5-0.3,1.1-0.3,1.7c0,2.6,2.1,4.6,4.6,4.6c2.6,0,4.6-2.1,4.6-4.6c0-0.6-0.1-1.2-0.3-1.7h2.5L-601.5,714.2L-601.5,714.2z"/>
<path fill="#FFFFFF" d="M-608.3,729.5c-4.6,0-9.2-1.6-12.8-4.5c-0.6-0.5-0.7-1.3-0.2-1.9s1.3-0.7,1.9-0.2c3.2,2.5,7,3.9,11.1,3.9
	c9.8,0,17.8-8,17.8-17.8c0-9.8-8-17.8-17.8-17.8c-9.8,0-17.8,8-17.8,17.8c0,3.4,1,6.7,2.7,9.5c0.4,0.6,0.2,1.5-0.4,1.9
	c-0.6,0.4-1.5,0.2-1.9-0.4c-2.1-3.3-3.2-7.1-3.2-11c0-11.3,9.2-20.5,20.5-20.5c11.3,0,20.5,9.2,20.5,20.5
	C-587.8,720.3-597,729.5-608.3,729.5z"/>
</svg>
