<?xml version="1.0" encoding="utf-8"?>
<!-- Generator: Adobe Illustrator 16.2.1, SVG Export Plug-In . SVG Version: 6.00 Build 0)  -->
<!DOCTYPE svg PUBLIC "-//W3C//DTD SVG 1.1//EN" "http://www.w3.org/Graphics/SVG/1.1/DTD/svg11.dtd">
<svg version="1.1" id="Ebene_1" xmlns="http://www.w3.org/2000/svg" xmlns:xlink="http://www.w3.org/1999/xlink" x="0px" y="0px"
	 width="100px" height="100px" viewBox="0 0 100 100" enable-background="new 0 0 100 100" xml:space="preserve">
<g>
	<path d="M50.214,46.499l0.043,0.739l-0.716-0.09c-2.604-0.348-4.878-1.524-6.81-3.502l-0.944-0.981l-0.243,0.725
		c-0.515,1.615-0.187,3.32,0.887,4.468c0.572,0.634,0.443,0.725-0.543,0.348c-0.344-0.121-0.645-0.212-0.673-0.166
		c-0.1,0.105,0.243,1.479,0.516,2.022c0.371,0.755,1.13,1.494,1.959,1.932l0.701,0.348l-0.829,0.015
		c-0.802,0-0.83,0.015-0.744,0.332c0.286,0.982,1.416,2.022,2.675,2.477l0.888,0.316l-0.773,0.483
		c-1.144,0.694-2.488,1.086-3.833,1.116c-0.645,0.016-1.174,0.075-1.174,0.121c0,0.151,1.746,0.996,2.761,1.329
		c3.048,0.98,6.667,0.557,9.386-1.118c1.932-1.192,3.863-3.562,4.764-5.856c0.487-1.223,0.973-3.457,0.973-4.528
		c0-0.694,0.044-0.785,0.845-1.615c0.472-0.482,0.916-1.011,1.001-1.162c0.144-0.286,0.13-0.286-0.6-0.03
		c-1.217,0.453-1.389,0.393-0.788-0.287c0.443-0.482,0.974-1.357,0.974-1.614c0-0.046-0.216,0.029-0.458,0.166
		c-0.258,0.15-0.83,0.377-1.259,0.514l-0.773,0.256l-0.7-0.498c-0.386-0.271-0.931-0.573-1.216-0.664
		c-0.73-0.211-1.846-0.182-2.504,0.061C51.215,42.831,50.085,44.582,50.214,46.499C50.214,46.499,50.085,44.582,50.214,46.499z"/>
	<path d="M50,70.5c-4.629,0-9.164-1.586-12.771-4.466c-0.587-0.468-0.683-1.322-0.215-1.908s1.322-0.683,1.908-0.214
		c3.174,2.533,7.005,3.873,11.078,3.873c9.807,0,17.785-7.979,17.785-17.786c0-9.806-7.979-17.784-17.785-17.784
		s-17.785,7.979-17.785,17.784c0,3.38,0.95,6.666,2.749,9.504c0.402,0.633,0.214,1.473-0.42,1.874
		c-0.633,0.4-1.473,0.213-1.874-0.42c-2.073-3.274-3.17-7.062-3.17-10.958C29.5,38.696,38.695,29.5,50,29.5
		c11.304,0,20.5,9.196,20.5,20.499C70.5,61.304,61.304,70.5,50,70.5z"/>
</g>
</svg>
