<?xml version="1.0" encoding="utf-8"?>
<!-- Generator: Adobe Illustrator 18.1.1, SVG Export Plug-In . SVG Version: 6.00 Build 0)  -->
<svg version="1.1" id="Ebene_1" xmlns="http://www.w3.org/2000/svg" xmlns:xlink="http://www.w3.org/1999/xlink" x="0px" y="0px"
	 viewBox="-658 659.3 100 100" enable-background="new -658 659.3 100 100" xml:space="preserve">
<g>
	<path fill="#FFFFFF" d="M-606.5,718.5V709h2.7l0.4-3.3h-3l0-1.6c0-0.9,0.1-1.3,1.3-1.3h1.7v-3.3h-2.7c-3.2,0-4.3,1.6-4.3,4.3v2h-2
		v3.3h2v9.5H-606.5z"/>
	<path fill="#FFFFFF" d="M-608,729.5c-4.6,0-9.2-1.6-12.8-4.5c-0.6-0.5-0.7-1.3-0.2-1.9c0.5-0.6,1.3-0.7,1.9-0.2
		c3.2,2.5,7,3.9,11.1,3.9c9.8,0,17.8-8,17.8-17.8c0-9.8-8-17.8-17.8-17.8c-9.8,0-17.8,8-17.8,17.8c0,3.4,0.9,6.7,2.7,9.5
		c0.4,0.6,0.2,1.5-0.4,1.9c-0.6,0.4-1.5,0.2-1.9-0.4c-2.1-3.3-3.2-7.1-3.2-11c0-11.3,9.2-20.5,20.5-20.5c11.3,0,20.5,9.2,20.5,20.5
		C-587.5,720.3-596.7,729.5-608,729.5z"/>
</g>
</svg>
