<?xml version="1.0" encoding="utf-8"?>
<!-- Generator: Adobe Illustrator 16.2.1, SVG Export Plug-In . SVG Version: 6.00 Build 0)  -->
<!DOCTYPE svg PUBLIC "-//W3C//DTD SVG 1.1//EN" "http://www.w3.org/Graphics/SVG/1.1/DTD/svg11.dtd">
<svg version="1.1" id="Ebene_1" xmlns="http://www.w3.org/2000/svg" xmlns:xlink="http://www.w3.org/1999/xlink" x="0px" y="0px"
	 width="100px" height="100px" viewBox="0 0 100 100" enable-background="new 0 0 100 100" xml:space="preserve">
<path d="M61.106,59.887c-2.043,2.592-4.737,4.125-7.585,4.125c-4.345,0-8.09-4.012-9.817-8.012h10.795
	c0.723,0,1.309-0.723,1.309-1.5S55.222,53,54.499,53H42.955c-0.175-1-0.274-1.889-0.274-2.953c0-0.746,0.059-2.047,0.146-2.047
	h11.673c0.723,0,1.309-0.723,1.309-1.501c0-0.776-0.586-1.499-1.309-1.499H43.406c1.562-6,5.501-9.08,10.115-9.08
	c2.934,0,5.686,1.475,7.748,4.203c0.449,0.594,1.294,0.695,1.888,0.246s0.712-1.302,0.263-1.897
	c-2.547-3.369-6.155-5.245-9.898-5.245C47.468,33.227,42.331,38,40.605,45h-2.989c-0.723,0-1.309,0.723-1.309,1.499
	c0,0.778,0.586,1.501,1.309,1.501h2.498c-0.076,0-0.129,1.304-0.129,2.047c0,1.059,0.089,1.953,0.242,2.953h-2.611
	c-0.723,0-1.309,0.723-1.309,1.5s0.586,1.5,1.309,1.5h3.258c1.939,6,6.869,10.709,12.647,10.709c3.69,0,7.136-1.845,9.702-5.101
	c0.461-0.584,0.361-1.46-0.224-1.921S61.568,59.301,61.106,59.887z"/>
</svg>
