<?xml version="1.0" encoding="utf-8"?>
<!-- Generator: Adobe Illustrator 18.1.1, SVG Export Plug-In . SVG Version: 6.00 Build 0)  -->
<svg version="1.1" id="Ebene_1" xmlns="http://www.w3.org/2000/svg" xmlns:xlink="http://www.w3.org/1999/xlink" x="0px" y="0px"
	 viewBox="-658 659.3 100 100" enable-background="new -658 659.3 100 100" xml:space="preserve">
<path fill="#555555" d="M-596.9,719.2c-2,2.6-4.7,4.1-7.6,4.1c-4.3,0-8.1-4-9.8-8h10.8c0.7,0,1.3-0.7,1.3-1.5s-0.6-1.5-1.3-1.5H-615
	c-0.2-1-0.3-1.9-0.3-3c0-0.7,0.1-2,0.1-2h11.7c0.7,0,1.3-0.7,1.3-1.5c0-0.8-0.6-1.5-1.3-1.5h-11.1c1.6-6,5.5-9.1,10.1-9.1
	c2.9,0,5.7,1.5,7.7,4.2c0.4,0.6,1.3,0.7,1.9,0.2c0.6-0.4,0.7-1.3,0.3-1.9c-2.5-3.4-6.2-5.2-9.9-5.2c-6.1,0-11.2,4.8-12.9,11.8h-3
	c-0.7,0-1.3,0.7-1.3,1.5c0,0.8,0.6,1.5,1.3,1.5h2.5c-0.1,0-0.1,1.3-0.1,2c0,1.1,0.1,2,0.2,3h-2.6c-0.7,0-1.3,0.7-1.3,1.5
	s0.6,1.5,1.3,1.5h3.3c1.9,6,6.9,10.7,12.6,10.7c3.7,0,7.1-1.8,9.7-5.1c0.5-0.6,0.4-1.5-0.2-1.9
	C-595.6,718.5-596.4,718.6-596.9,719.2z"/>
</svg>
