<?xml version="1.0" encoding="utf-8"?>
<!-- Generator: Adobe Illustrator 18.1.1, SVG Export Plug-In . SVG Version: 6.00 Build 0)  -->
<svg version="1.1" id="Ebene_1" xmlns="http://www.w3.org/2000/svg" xmlns:xlink="http://www.w3.org/1999/xlink" x="0px" y="0px"
	 viewBox="-658 659.3 100 100" enable-background="new -658 659.3 100 100" xml:space="preserve">
<g>
	<path fill="#FFFFFF" d="M-607.8,705.8l0,0.7l-0.7-0.1c-2.6-0.3-4.9-1.5-6.8-3.5l-0.9-1l-0.2,0.7c-0.5,1.6-0.2,3.3,0.9,4.5
		c0.6,0.6,0.4,0.7-0.5,0.3c-0.3-0.1-0.6-0.2-0.7-0.2c-0.1,0.1,0.2,1.5,0.5,2c0.4,0.8,1.1,1.5,2,1.9l0.7,0.3l-0.8,0
		c-0.8,0-0.8,0-0.7,0.3c0.3,1,1.4,2,2.7,2.5l0.9,0.3l-0.8,0.5c-1.1,0.7-2.5,1.1-3.8,1.1c-0.6,0-1.2,0.1-1.2,0.1c0,0.2,1.7,1,2.8,1.3
		c3,1,6.7,0.6,9.4-1.1c1.9-1.2,3.9-3.6,4.8-5.9c0.5-1.2,1-3.5,1-4.5c0-0.7,0-0.8,0.8-1.6c0.5-0.5,0.9-1,1-1.2c0.1-0.3,0.1-0.3-0.6,0
		c-1.2,0.5-1.4,0.4-0.8-0.3c0.4-0.5,1-1.4,1-1.6c0,0-0.2,0-0.5,0.2c-0.3,0.2-0.8,0.4-1.3,0.5l-0.8,0.3l-0.7-0.5
		c-0.4-0.3-0.9-0.6-1.2-0.7c-0.7-0.2-1.8-0.2-2.5,0.1C-606.8,702.2-607.9,703.9-607.8,705.8C-607.8,705.8-607.9,703.9-607.8,705.8z"
		/>
	<path fill="#FFFFFF" d="M-608,729.8c-4.6,0-9.2-1.6-12.8-4.5c-0.6-0.5-0.7-1.3-0.2-1.9c0.5-0.6,1.3-0.7,1.9-0.2
		c3.2,2.5,7,3.9,11.1,3.9c9.8,0,17.8-8,17.8-17.8c0-9.8-8-17.8-17.8-17.8c-9.8,0-17.8,8-17.8,17.8c0,3.4,0.9,6.7,2.7,9.5
		c0.4,0.6,0.2,1.5-0.4,1.9c-0.6,0.4-1.5,0.2-1.9-0.4c-2.1-3.3-3.2-7.1-3.2-11c0-11.3,9.2-20.5,20.5-20.5c11.3,0,20.5,9.2,20.5,20.5
		C-587.5,720.6-596.7,729.8-608,729.8z"/>
</g>
</svg>
