<?xml version="1.0" encoding="utf-8"?>
<!-- Generator: Adobe Illustrator 18.1.1, SVG Export Plug-In . SVG Version: 6.00 Build 0)  -->
<svg version="1.1" id="Ebene_1" xmlns="http://www.w3.org/2000/svg" xmlns:xlink="http://www.w3.org/1999/xlink" x="0px" y="0px"
	 viewBox="-658 659.3 100 100" enable-background="new -658 659.3 100 100" xml:space="preserve">
<g>
	<path fill="#FFFFFF" d="M-599,708.9c2.3,0,4.4-0.9,6-2.5l9.9-12c0.4-0.5,0.5-1.3,0-1.9c-0.2-0.2-0.5-0.4-0.8-0.4
		c-0.5,0-0.9,0.3-1.1,0.5l-9.9,12c-1.6,1.6-3.9,2.1-6,1.4l-0.8-0.3l-2.9,3.3l-3.3-2.9l3.6-3.2l-0.3-0.8c-0.7-2.1-0.2-4.4,1.3-6
		l11.9-10l0.1-0.1c0.2-0.3,0.4-1-0.1-1.6c-0.2-0.3-0.5-0.5-0.9-0.5c-0.5,0-0.8,0.2-1,0.3l-11.9,10c-2.1,2.1-2.9,5-2.3,7.9l-2.6,2.3
		l-2.2-2c-0.6-0.8-10.2-12.7-13.6-16.5c-0.8-0.9-1.9-1.4-3.1-1.4c-1.2,0-2.4,0.5-3.2,1.3c-1.2,1.2-1.6,3-1,4.9
		c0.1,0.2,0.1,0.4,0.2,0.7c0.7,2.3,2.3,7.6,5.7,11.7c3.1,3.7,6.8,5.2,8.4,5.7l1.6,1.8l-12.8,11.3c-2.6,2.6-2.6,6.8,0,9.3
		c1.2,1.2,2.9,1.9,4.6,1.9c1.8,0,3.4-0.7,4.7-2l10.8-12.3l11,12.6c1.2,1.2,2.9,1.9,4.6,1.9c1.8,0,3.4-0.7,4.6-1.9
		c2.6-2.6,2.6-6.8,0-9.4l-13.1-11.5l1.8-2.1C-600.2,708.9-599.6,708.9-599,708.9z M-591.4,724.2c1.5,1.5,1.5,4.1,0,5.6
		c-0.7,0.7-1.7,1.2-2.8,1.2c-1,0-2-0.4-2.8-1.1l-20.2-23.2l-0.2,0c0,0-4.9-1.4-7.7-5c-3.5-4.5-5.6-11.8-5.6-11.9
		c-0.2-0.7-0.1-1.4,0.4-1.9c0.3-0.3,0.8-0.5,1.3-0.5c0.5,0,0.9,0.2,1.2,0.5l13.7,16.6L-591.4,724.2z M-611.6,717.1l-10.9,12.5
		c-0.7,0.7-1.7,1.1-2.8,1.1c-1.1,0-2-0.4-2.8-1.2c-1.5-1.5-1.5-4.1,0-5.6l12.8-11.2L-611.6,717.1z"/>
	<path fill="#FFFFFF" d="M-598.1,695.9c0.3,0.3,0.6,0.4,0.9,0.4c0.3,0,0.6-0.1,0.9-0.3l7.5-7c0.5-0.5,0.6-1.3,0.1-1.8
		c-0.5-0.5-1.3-0.6-1.8-0.1l-7.5,7C-598.5,694.6-598.5,695.4-598.1,695.9z"/>
	<path fill="#FFFFFF" d="M-594.9,699.2c0.3,0.3,0.6,0.4,0.9,0.4c0.3,0,0.7-0.1,0.9-0.4l7.3-7.3c0.5-0.5,0.5-1.3,0-1.8
		c-0.5-0.5-1.3-0.5-1.8,0l-7.3,7.3C-595.4,697.9-595.4,698.7-594.9,699.2z"/>
</g>
</svg>
