<?xml version="1.0" encoding="utf-8"?>
<!-- Generator: Adobe Illustrator 16.2.1, SVG Export Plug-In . SVG Version: 6.00 Build 0)  -->
<!DOCTYPE svg PUBLIC "-//W3C//DTD SVG 1.1//EN" "http://www.w3.org/Graphics/SVG/1.1/DTD/svg11.dtd">
<svg version="1.1" id="Ebene_1" xmlns="http://www.w3.org/2000/svg" xmlns:xlink="http://www.w3.org/1999/xlink" x="0px" y="0px"
	 width="100px" height="100px" viewBox="0 0 100 100" enable-background="new 0 0 100 100" xml:space="preserve">
<g>
	<path id="history" d="M61.406,50.018c0,0.896-0.727,1.623-1.623,1.623l-9.322-0.014c-0.146,0.041-0.299,0.072-0.459,0.072
		c-0.697,0-1.287-0.441-1.516-1.061c-0.086-0.193-0.131-0.408-0.131-0.635c0-0.084,0.012-0.166,0.025-0.244l0.012-9.488
		c0-0.896,0.729-1.623,1.625-1.623s1.623,0.727,1.623,1.623l-0.01,8.109l8.152,0.014C60.68,48.395,61.406,49.121,61.406,50.018z
		 M50,67.863c-3.812,0-7.33-1.217-10.23-3.254c-0.686-0.191-1.195-0.812-1.195-1.561l-0.014-0.15c0-0.896,0.727-1.623,1.623-1.623
		c0.471,0,0.893,0.203,1.189,0.523c2.416,1.764,5.383,2.816,8.604,2.816c8.084,0,14.639-6.555,14.639-14.641
		c0-8.082-6.555-14.639-14.639-14.639c-8.086,0-14.639,6.557-14.639,14.639c0,2.234,0.512,4.344,1.41,6.236l-0.264,0.264
		c0.592,0.242,1.01,0.82,1.01,1.504l0.016,0.148c0,0.896-0.727,1.625-1.623,1.625c-0.74,0-1.359-0.5-1.555-1.178
		c-1.396-2.547-2.195-5.467-2.195-8.574c0-9.865,7.998-17.863,17.863-17.863S67.863,40.135,67.863,50S59.865,67.863,50,67.863z"/>
</g>
</svg>
