<?xml version="1.0" encoding="utf-8"?>
<!-- Generator: Adobe Illustrator 18.1.1, SVG Export Plug-In . SVG Version: 6.00 Build 0)  -->
<svg version="1.1" id="Ebene_1" xmlns="http://www.w3.org/2000/svg" xmlns:xlink="http://www.w3.org/1999/xlink" x="0px" y="0px"
	 viewBox="-658 659.3 100 100" enable-background="new -658 659.3 100 100" xml:space="preserve">
<g>
	<path fill="#FFFFFF" d="M-583.6,703.5C-583.6,703.5-583.6,703.5-583.6,703.5h-48.9c-0.7,0-1.3-0.4-1.4-1.1
		c-0.2-0.6,0.1-1.3,0.6-1.7l24.4-15.2c0.5-0.3,1.1-0.3,1.6,0l24.3,15.1c0.5,0.2,0.9,0.8,0.9,1.4
		C-582.1,702.9-582.7,703.5-583.6,703.5z M-627.2,700.5h38.3l-19.2-11.9L-627.2,700.5z"/>
	<path fill="#FFFFFF" d="M-625.9,727.6c-0.8,0-1.5-0.7-1.5-1.5v-18.4c0-0.8,0.7-1.5,1.5-1.5s1.5,0.7,1.5,1.5v18.4
		C-624.4,726.9-625.1,727.6-625.9,727.6z"/>
	<path fill="#FFFFFF" d="M-614,727.6c-0.8,0-1.5-0.7-1.5-1.5v-18.4c0-0.8,0.7-1.5,1.5-1.5s1.5,0.7,1.5,1.5v18.4
		C-612.5,726.9-613.1,727.6-614,727.6z"/>
	<path fill="#FFFFFF" d="M-602.1,727.6c-0.8,0-1.5-0.7-1.5-1.5v-18.4c0-0.8,0.7-1.5,1.5-1.5s1.5,0.7,1.5,1.5v18.4
		C-600.6,726.9-601.2,727.6-602.1,727.6z"/>
	<path fill="#FFFFFF" d="M-590.1,727.6c-0.8,0-1.5-0.7-1.5-1.5v-18.4c0-0.8,0.7-1.5,1.5-1.5s1.5,0.7,1.5,1.5v18.4
		C-588.6,726.9-589.3,727.6-590.1,727.6z"/>
	<path fill="#FFFFFF" d="M-583.6,733.3h-48.8c-0.8,0-1.5-0.7-1.5-1.5s0.7-1.5,1.5-1.5h48.8c0.8,0,1.5,0.7,1.5,1.5
		S-582.8,733.3-583.6,733.3z"/>
</g>
</svg>
