<?xml version="1.0" encoding="utf-8"?>
<!-- Generator: Adobe Illustrator 16.2.1, SVG Export Plug-In . SVG Version: 6.00 Build 0)  -->
<!DOCTYPE svg PUBLIC "-//W3C//DTD SVG 1.1//EN" "http://www.w3.org/Graphics/SVG/1.1/DTD/svg11.dtd">
<svg version="1.1" id="Ebene_1" xmlns="http://www.w3.org/2000/svg" xmlns:xlink="http://www.w3.org/1999/xlink" x="0px" y="0px"
	 width="100px" height="100px" viewBox="0 0 100 100" enable-background="new 0 0 100 100" xml:space="preserve">
<g>
	<path d="M31.449,37.788c0-1.342,1.088-2.43,2.431-2.43h32.906c1.343,0,2.431,1.088,2.431,2.43l0,0c0,1.343-1.088,2.431-2.431,2.431
		H33.88C32.537,40.219,31.449,39.131,31.449,37.788L31.449,37.788z"/>
	<path d="M31.449,49.667c0-1.343,1.088-2.431,2.431-2.431h32.906c1.343,0,2.431,1.088,2.431,2.431l0,0
		c0,1.343-1.088,2.431-2.431,2.431H33.88C32.537,52.098,31.449,51.01,31.449,49.667L31.449,49.667z"/>
	<path d="M31.449,61.546c0-1.343,1.088-2.431,2.431-2.431h32.906c1.343,0,2.431,1.088,2.431,2.431l0,0
		c0,1.342-1.088,2.43-2.431,2.43H33.88C32.537,63.976,31.449,62.888,31.449,61.546L31.449,61.546z"/>
</g>
</svg>
