<?xml version="1.0" encoding="utf-8"?>
<!-- Generator: Adobe Illustrator 16.2.1, SVG Export Plug-In . SVG Version: 6.00 Build 0)  -->
<!DOCTYPE svg PUBLIC "-//W3C//DTD SVG 1.1//EN" "http://www.w3.org/Graphics/SVG/1.1/DTD/svg11.dtd">
<svg version="1.1" id="Ebene_1" xmlns="http://www.w3.org/2000/svg" xmlns:xlink="http://www.w3.org/1999/xlink" x="0px" y="0px"
	 width="100px" height="100px" viewBox="0 0 100 100" enable-background="new 0 0 100 100" xml:space="preserve">
<path id="delete_x25_20number" d="M33.592,33.211c1.678-1.676,4.302-1.582,5.979,0.096l10.684,10.627l10.502-10.551
	c1.678-1.678,4.396-1.678,6.074,0c1.678,1.676,1.678,4.395,0,6.072l-10.525,10.5L67.076,60.67c1.678,1.678,1.678,4.396,0,6.072
	c-1.678,1.677-4.396,1.678-6.074,0L50.263,55.984L39.648,66.573c-1.678,1.677-4.396,1.677-6.074,0
	c-1.677-1.677-1.582-4.301,0.096-5.978l10.582-10.633l-10.66-10.68C31.914,37.607,31.914,34.889,33.592,33.211z"/>
</svg>
