<?xml version="1.0" encoding="utf-8"?>
<!-- Generator: Adobe Illustrator 16.2.1, SVG Export Plug-In . SVG Version: 6.00 Build 0)  -->
<!DOCTYPE svg PUBLIC "-//W3C//DTD SVG 1.1//EN" "http://www.w3.org/Graphics/SVG/1.1/DTD/svg11.dtd">
<svg version="1.1" id="Ebene_1" xmlns="http://www.w3.org/2000/svg" xmlns:xlink="http://www.w3.org/1999/xlink" x="0px" y="0px"
	 width="100px" height="100px" viewBox="0 0 100 100" enable-background="new 0 0 100 100" xml:space="preserve">
<g>
	<path fill="#d9426a" id="location" d="M44.231,47.149c0-3.202,2.579-5.799,5.762-5.799s5.763,2.597,5.763,5.799c0,3.203-2.58,5.799-5.763,5.799
		S44.231,50.353,44.231,47.149z M52.814,47.129c0-1.58-1.272-2.86-2.842-2.86c-1.57,0-2.842,1.28-2.842,2.86
		c0,1.579,1.271,2.86,2.842,2.86C51.542,49.989,52.814,48.708,52.814,47.129z M64.256,47.066c0,3.708-1.407,7.074-3.701,9.616
		c-0.047,0.065-0.074,0.141-0.133,0.199l-9.113,9.604c-0.066,0.136-0.139,0.27-0.252,0.382c-0.438,0.44-1.083,0.522-1.612,0.271
		c-0.172-0.07-0.333-0.176-0.474-0.316c-0.025-0.025-0.033-0.06-0.057-0.087l-9.352-9.854c-0.076-0.076-0.117-0.172-0.172-0.26
		c-2.262-2.534-3.646-5.877-3.646-9.556c0-7.923,6.383-14.347,14.256-14.347c2.82,0,5.443,0.833,7.655,2.255
		c0.512,0.204,0.882,0.698,0.901,1.286l0.018,0.133c0.025,0.793-0.591,1.457-1.379,1.484c-0.475,0.016-0.9-0.207-1.172-0.557
		l-0.024,0.026c-1.735-1.068-3.768-1.695-5.95-1.695c-6.316,0-11.436,5.152-11.436,11.508c0,2.955,1.121,5.636,2.94,7.673
		c0.008,0.008,0.019,0.01,0.026,0.018l0.621,0.654c0.211,0.201,0.421,0.405,0.647,0.59l4.767,5.102
		c-0.006,0-0.011-0.002-0.016-0.003l2.393,2.522l2.393-2.521c-0.015,0.002-0.029,0.007-0.045,0.01l4.764-5
		c0.036-0.029,0.067-0.062,0.104-0.092l1.197-1.262c0.086-0.087,0.191-0.135,0.292-0.195c1.729-2.014,2.786-4.625,2.786-7.495
		c0-1.847-0.442-3.585-1.21-5.131l0.071-0.077c-0.279-0.252-0.461-0.612-0.475-1.02L59.852,40.8
		c-0.026-0.793,0.591-1.457,1.379-1.482c0.734-0.025,1.35,0.516,1.453,1.23C63.682,42.505,64.256,44.716,64.256,47.066z"/>
</g>
</svg>
